{
	"asset":{
		"generator":"Khronos glTF Blender I/O v4.5.48",
		"version":"2.0"
	},
	"scene":0,
	"scenes":[
		{
			"name":"Scene",
			"nodes":[
				0
			]
		}
	],
	"nodes":[
		{
			"mesh":0,
			"name":"bun_zipper_res3"
		}
	],
	"meshes":[
		{
			"name":"bun_zipper_res3",
			"primitives":[
				{
					"attributes":{
						"POSITION":0,
						"NORMAL":1
					},
					"indices":2
				}
			]
		}
	],
	"accessors":[
		{
			"bufferView":0,
			"componentType":5126,
			"count":3584,
			"max":[
				0.060491375625133514,
				0.05764050781726837,
				-0.03375673666596413
			],
			"min":[
				-0.09286981076002121,
				-0.057659052312374115,
				-0.18465803563594818
			],
			"type":"VEC3"
		},
		{
			"bufferView":1,
			"componentType":5126,
			"count":3584,
			"type":"VEC3"
		},
		{
			"bufferView":2,
			"componentType":5123,
			"count":8832,
			"type":"SCALAR"
		}
	],
	"bufferViews":[
		{
			"buffer":0,
			"byteLength":43008,
			"byteOffset":0,
			"target":34962
		},
		{
			"buffer":0,
			"byteLength":43008,
			"byteOffset":43008,
			"target":34962
		},
		{
			"buffer":0,
			"byteLength":17664,
			"byteOffset":86016,
			"target":34963
		}
	],
	"buffers":[
		{
			"byteLength":103680,
			"uri":"bunnyfixed3k.bin"
		}
	]
}
