{
	"asset":{
		"generator":"Khronos glTF Blender I/O v4.5.48",
		"version":"2.0"
	},
	"scene":0,
	"scenes":[
		{
			"name":"Scene",
			"nodes":[
				0
			]
		}
	],
	"nodes":[
		{
			"mesh":0,
			"name":"bun_zipper_res3"
		}
	],
	"meshes":[
		{
			"name":"bun_zipper_res3",
			"primitives":[
				{
					"attributes":{
						"POSITION":0,
						"NORMAL":1
					},
					"indices":2
				}
			]
		}
	],
	"accessors":[
		{
			"bufferView":0,
			"componentType":5126,
			"count":11300,
			"max":[
				0.06093459948897362,
				0.058465100824832916,
				-0.03341430053114891
			],
			"min":[
				-0.09436430037021637,
				-0.06167209893465042,
				-0.184812992811203
			],
			"type":"VEC3"
		},
		{
			"bufferView":1,
			"componentType":5126,
			"count":11300,
			"type":"VEC3"
		},
		{
			"bufferView":2,
			"componentType":5123,
			"count":11304,
			"type":"SCALAR"
		}
	],
	"bufferViews":[
		{
			"buffer":0,
			"byteLength":135600,
			"byteOffset":0,
			"target":34962
		},
		{
			"buffer":0,
			"byteLength":135600,
			"byteOffset":135600,
			"target":34962
		},
		{
			"buffer":0,
			"byteLength":22608,
			"byteOffset":271200,
			"target":34963
		}
	],
	"buffers":[
		{
			"byteLength":293808,
			"uri":"bunny.bin"
		}
	]
}
