{
	"asset":{
		"generator":"Khronos glTF Blender I/O v4.5.48",
		"version":"2.0"
	},
	"scene":0,
	"scenes":[
		{
			"name":"Scene",
			"nodes":[
				0
			]
		}
	],
	"nodes":[
		{
			"mesh":0,
			"name":"dragon_vrip"
		}
	],
	"meshes":[
		{
			"name":"dragon_vrip.001",
			"primitives":[
				{
					"attributes":{
						"POSITION":0,
						"NORMAL":1
					},
					"indices":2
				}
			]
		}
	],
	"accessors":[
		{
			"bufferView":0,
			"componentType":5126,
			"count":2612272,
			"max":[
				0.09656620025634766,
				0.04120749980211258,
				-0.05272949859499931
			],
			"min":[
				-0.10832399874925613,
				-0.050414301455020905,
				-0.19717299938201904
			],
			"type":"VEC3"
		},
		{
			"bufferView":1,
			"componentType":5126,
			"count":2612272,
			"type":"VEC3"
		},
		{
			"bufferView":2,
			"componentType":5125,
			"count":2614242,
			"type":"SCALAR"
		}
	],
	"bufferViews":[
		{
			"buffer":0,
			"byteLength":31347264,
			"byteOffset":0,
			"target":34962
		},
		{
			"buffer":0,
			"byteLength":31347264,
			"byteOffset":31347264,
			"target":34962
		},
		{
			"buffer":0,
			"byteLength":10456968,
			"byteOffset":62694528,
			"target":34963
		}
	],
	"buffers":[
		{
			"byteLength":73151496,
			"uri":"dragon871k.bin"
		}
	]
}
