{
	"asset":{
		"generator":"Khronos glTF Blender I/O v4.5.48",
		"version":"2.0"
	},
	"scene":0,
	"scenes":[
		{
			"name":"Scene",
			"nodes":[
				0
			]
		}
	],
	"nodes":[
		{
			"mesh":0,
			"name":"happy_vrip_res3"
		}
	],
	"meshes":[
		{
			"name":"happy_vrip_res3",
			"primitives":[
				{
					"attributes":{
						"POSITION":0,
						"NORMAL":1
					},
					"indices":2
				}
			]
		}
	],
	"accessors":[
		{
			"bufferView":0,
			"componentType":5126,
			"count":196686,
			"max":[
				0.03519659861922264,
				0.03397060185670853,
				-0.04984850063920021
			],
			"min":[
				-0.04609709978103638,
				-0.047375600785017014,
				-0.24767300486564636
			],
			"type":"VEC3"
		},
		{
			"bufferView":1,
			"componentType":5126,
			"count":196686,
			"type":"VEC3"
		},
		{
			"bufferView":2,
			"componentType":5125,
			"count":196770,
			"type":"SCALAR"
		}
	],
	"bufferViews":[
		{
			"buffer":0,
			"byteLength":2360232,
			"byteOffset":0,
			"target":34962
		},
		{
			"buffer":0,
			"byteLength":2360232,
			"byteOffset":2360232,
			"target":34962
		},
		{
			"buffer":0,
			"byteLength":787080,
			"byteOffset":4720464,
			"target":34963
		}
	],
	"buffers":[
		{
			"byteLength":5507544,
			"uri":"happy_65k.bin"
		}
	]
}
