{
	"asset":{
		"generator":"Khronos glTF Blender I/O v4.5.48",
		"version":"2.0"
	},
	"scene":0,
	"scenes":[
		{
			"name":"Scene",
			"nodes":[
				0
			]
		}
	],
	"nodes":[
		{
			"mesh":0,
			"name":"happy_vrip_res2"
		}
	],
	"meshes":[
		{
			"name":"happy_vrip_res2",
			"primitives":[
				{
					"attributes":{
						"POSITION":0,
						"NORMAL":1
					},
					"indices":2
				}
			]
		}
	],
	"accessors":[
		{
			"bufferView":0,
			"componentType":5126,
			"count":871528,
			"max":[
				0.035208601504564285,
				0.03401549905538559,
				-0.049789298325777054
			],
			"min":[
				-0.04610820114612579,
				-0.0473892018198967,
				-0.24776999652385712
			],
			"type":"VEC3"
		},
		{
			"bufferView":1,
			"componentType":5126,
			"count":871528,
			"type":"VEC3"
		},
		{
			"bufferView":2,
			"componentType":5125,
			"count":871899,
			"type":"SCALAR"
		}
	],
	"bufferViews":[
		{
			"buffer":0,
			"byteLength":10458336,
			"byteOffset":0,
			"target":34962
		},
		{
			"buffer":0,
			"byteLength":10458336,
			"byteOffset":10458336,
			"target":34962
		},
		{
			"buffer":0,
			"byteLength":3487596,
			"byteOffset":20916672,
			"target":34963
		}
	],
	"buffers":[
		{
			"byteLength":24404268,
			"uri":"happy_291k.bin"
		}
	]
}
