{
	"asset":{
		"generator":"Khronos glTF Blender I/O v4.5.48",
		"version":"2.0"
	},
	"scene":0,
	"scenes":[
		{
			"name":"Scene",
			"nodes":[
				0
			]
		}
	],
	"nodes":[
		{
			"mesh":0,
			"name":"132996_c742ef84_0005_0113",
			"rotation":[
				0.7071068286895752,
				0,
				0,
				0.7071068286895752
			]
		}
	],
	"meshes":[
		{
			"name":"132996_c742ef84_0005_0113",
			"primitives":[
				{
					"attributes":{
						"POSITION":0,
						"NORMAL":1
					},
					"indices":2
				}
			]
		}
	],
	"accessors":[
		{
			"bufferView":0,
			"componentType":5126,
			"count":1926,
			"max":[
				8.273758888244629,
				3.3985443115234375,
				0
			],
			"min":[
				0.016144201159477234,
				0.036009807139635086,
				-4
			],
			"type":"VEC3"
		},
		{
			"bufferView":1,
			"componentType":5126,
			"count":1926,
			"type":"VEC3"
		},
		{
			"bufferView":2,
			"componentType":5123,
			"count":5496,
			"type":"SCALAR"
		}
	],
	"bufferViews":[
		{
			"buffer":0,
			"byteLength":23112,
			"byteOffset":0,
			"target":34962
		},
		{
			"buffer":0,
			"byteLength":23112,
			"byteOffset":23112,
			"target":34962
		},
		{
			"buffer":0,
			"byteLength":10992,
			"byteOffset":46224,
			"target":34963
		}
	],
	"buffers":[
		{
			"byteLength":57216,
			"uri":"model2.bin"
		}
	]
}
