{
	"asset":{
		"generator":"Khronos glTF Blender I/O v4.5.48",
		"version":"2.0"
	},
	"scene":0,
	"scenes":[
		{
			"name":"Scene",
			"nodes":[
				0
			]
		}
	],
	"nodes":[
		{
			"mesh":0,
			"name":"109232_04340d62_0013_0229",
			"rotation":[
				0.7071068286895752,
				0,
				0,
				0.7071068286895752
			]
		}
	],
	"meshes":[
		{
			"name":"109232_04340d62_0013_0229",
			"primitives":[
				{
					"attributes":{
						"POSITION":0,
						"NORMAL":1
					},
					"indices":2
				}
			]
		}
	],
	"accessors":[
		{
			"bufferView":0,
			"componentType":5126,
			"count":364,
			"max":[
				0.5,
				0.25,
				0.2498980462551117
			],
			"min":[
				0,
				-0.24959227442741394,
				-0.2498980462551117
			],
			"type":"VEC3"
		},
		{
			"bufferView":1,
			"componentType":5126,
			"count":364,
			"type":"VEC3"
		},
		{
			"bufferView":2,
			"componentType":5123,
			"count":1068,
			"type":"SCALAR"
		}
	],
	"bufferViews":[
		{
			"buffer":0,
			"byteLength":4368,
			"byteOffset":0,
			"target":34962
		},
		{
			"buffer":0,
			"byteLength":4368,
			"byteOffset":4368,
			"target":34962
		},
		{
			"buffer":0,
			"byteLength":2136,
			"byteOffset":8736,
			"target":34963
		}
	],
	"buffers":[
		{
			"byteLength":10872,
			"uri":"model1.bin"
		}
	]
}
