{
	"asset":{
		"generator":"Khronos glTF Blender I/O v4.5.48",
		"version":"2.0"
	},
	"extensionsUsed":[
		"KHR_materials_unlit"
	],
	"scene":0,
	"scenes":[
		{
			"name":"Scene",
			"nodes":[
				7
			]
		}
	],
	"nodes":[
		{
			"mesh":0,
			"name":"Box002_default_0"
		},
		{
			"children":[
				0
			],
			"name":"Box002",
			"rotation":[
				-0.70710688829422,
				0,
				0,
				0.7071066498756409
			]
		},
		{
			"name":"Group18985",
			"rotation":[
				-0.70710688829422,
				0,
				0,
				0.7071066498756409
			]
		},
		{
			"mesh":1,
			"name":"Object001_default_0"
		},
		{
			"children":[
				3
			],
			"name":"Object001",
			"rotation":[
				-0.70710688829422,
				0,
				0,
				0.7071066498756409
			]
		},
		{
			"children":[
				1,
				2,
				4
			],
			"name":"RootNode"
		},
		{
			"children":[
				5
			],
			"name":"1.FBX",
			"rotation":[
				0.70710688829422,
				0,
				0,
				0.7071066498756409
			]
		},
		{
			"children":[
				6
			],
			"name":"Sketchfab_model",
			"rotation":[
				-0.70710688829422,
				0,
				0,
				0.7071066498756409
			]
		}
	],
	"materials":[
		{
			"doubleSided":true,
			"extensions":{
				"KHR_materials_unlit":{}
			},
			"name":"default",
			"pbrMetallicRoughness":{
				"baseColorTexture":{
					"index":0
				},
				"metallicFactor":0,
				"roughnessFactor":0.9
			}
		}
	],
	"meshes":[
		{
			"name":"Box002_default_0",
			"primitives":[
				{
					"attributes":{
						"POSITION":0,
						"NORMAL":1,
						"TEXCOORD_0":2
					},
					"indices":3,
					"material":0
				}
			]
		},
		{
			"name":"Object001_default_0",
			"primitives":[
				{
					"attributes":{
						"POSITION":4,
						"NORMAL":5,
						"TEXCOORD_0":6
					},
					"indices":7,
					"material":0
				}
			]
		}
	],
	"textures":[
		{
			"sampler":0,
			"source":0
		}
	],
	"images":[
		{
			"mimeType":"image/png",
			"name":"default_baseColor",
			"uri":"default_baseColor.png"
		}
	],
	"accessors":[
		{
			"bufferView":0,
			"componentType":5126,
			"count":2145,
			"max":[
				0.4604490101337433,
				1.4105160236358643,
				0.3757419288158417
			],
			"min":[
				-0.4604490101337433,
				-0.3642579913139343,
				-1.0053009986877441
			],
			"type":"VEC3"
		},
		{
			"bufferView":1,
			"componentType":5126,
			"count":2145,
			"type":"VEC3"
		},
		{
			"bufferView":2,
			"componentType":5126,
			"count":2145,
			"type":"VEC2"
		},
		{
			"bufferView":3,
			"componentType":5123,
			"count":11124,
			"type":"SCALAR"
		},
		{
			"bufferView":4,
			"componentType":5126,
			"count":130,
			"max":[
				0.1959719955921173,
				-0.12931400537490845,
				0.05310700088739395
			],
			"min":[
				-0.1959719955921173,
				-0.20747999846935272,
				-0.10322500020265579
			],
			"type":"VEC3"
		},
		{
			"bufferView":5,
			"componentType":5126,
			"count":130,
			"type":"VEC3"
		},
		{
			"bufferView":6,
			"componentType":5126,
			"count":130,
			"type":"VEC2"
		},
		{
			"bufferView":7,
			"componentType":5123,
			"count":672,
			"type":"SCALAR"
		}
	],
	"bufferViews":[
		{
			"buffer":0,
			"byteLength":25740,
			"byteOffset":0,
			"target":34962
		},
		{
			"buffer":0,
			"byteLength":25740,
			"byteOffset":25740,
			"target":34962
		},
		{
			"buffer":0,
			"byteLength":17160,
			"byteOffset":51480,
			"target":34962
		},
		{
			"buffer":0,
			"byteLength":22248,
			"byteOffset":68640,
			"target":34963
		},
		{
			"buffer":0,
			"byteLength":1560,
			"byteOffset":90888,
			"target":34962
		},
		{
			"buffer":0,
			"byteLength":1560,
			"byteOffset":92448,
			"target":34962
		},
		{
			"buffer":0,
			"byteLength":1040,
			"byteOffset":94008,
			"target":34962
		},
		{
			"buffer":0,
			"byteLength":1344,
			"byteOffset":95048,
			"target":34963
		}
	],
	"samplers":[
		{
			"magFilter":9729,
			"minFilter":9987
		}
	],
	"buffers":[
		{
			"byteLength":96392,
			"uri":"shiba.bin"
		}
	]
}
