{
	"asset":{
		"generator":"Khronos glTF Blender I/O v4.5.48",
		"version":"2.0"
	},
	"scene":0,
	"scenes":[
		{
			"name":"Scene",
			"nodes":[
				0
			]
		}
	],
	"nodes":[
		{
			"mesh":0,
			"name":"Big_3_BiG_0",
			"rotation":[
				-0.7071068286895752,
				0,
				0,
				0.7071068286895752
			],
			"scale":[
				0.009999999776482582,
				0.009999998845160007,
				0.009999998845160007
			],
			"translation":[
				0,
				0,
				2.8469183444976807
			]
		}
	],
	"materials":[
		{
			"doubleSided":true,
			"name":"material_1",
			"normalTexture":{
				"index":0
			},
			"occlusionTexture":{
				"index":1
			},
			"pbrMetallicRoughness":{
				"baseColorTexture":{
					"index":2
				},
				"metallicFactor":0,
				"metallicRoughnessTexture":{
					"index":1
				},
				"roughnessFactor":0.944136917591095
			}
		}
	],
	"meshes":[
		{
			"name":"Big_3_BiG_0",
			"primitives":[
				{
					"attributes":{
						"POSITION":0,
						"NORMAL":1,
						"TEXCOORD_0":2
					},
					"indices":3,
					"material":0
				}
			]
		}
	],
	"textures":[
		{
			"sampler":0,
			"source":0
		},
		{
			"sampler":0,
			"source":1
		},
		{
			"sampler":0,
			"source":2
		}
	],
	"images":[
		{
			"mimeType":"image/png",
			"name":"material_1_normal",
			"uri":"material_1_normal.png"
		},
		{
			"mimeType":"image/png",
			"name":"material_1_metallicRoughness",
			"uri":"material_1_metallicRoughness.png"
		},
		{
			"mimeType":"image/png",
			"name":"material_1_baseColor",
			"uri":"material_1_baseColor.png"
		}
	],
	"accessors":[
		{
			"bufferView":0,
			"componentType":5126,
			"count":2111,
			"max":[
				98.60810089111328,
				385.5166931152344,
				171.6347198486328
			],
			"min":[
				-68.0116958618164,
				194.875,
				-36.543373107910156
			],
			"type":"VEC3"
		},
		{
			"bufferView":1,
			"componentType":5126,
			"count":2111,
			"type":"VEC3"
		},
		{
			"bufferView":2,
			"componentType":5126,
			"count":2111,
			"type":"VEC2"
		},
		{
			"bufferView":3,
			"componentType":5123,
			"count":10464,
			"type":"SCALAR"
		}
	],
	"bufferViews":[
		{
			"buffer":0,
			"byteLength":25332,
			"byteOffset":0,
			"target":34962
		},
		{
			"buffer":0,
			"byteLength":25332,
			"byteOffset":25332,
			"target":34962
		},
		{
			"buffer":0,
			"byteLength":16888,
			"byteOffset":50664,
			"target":34962
		},
		{
			"buffer":0,
			"byteLength":20928,
			"byteOffset":67552,
			"target":34963
		}
	],
	"samplers":[
		{
			"magFilter":9729,
			"minFilter":9987
		}
	],
	"buffers":[
		{
			"byteLength":88480,
			"uri":"stone.bin"
		}
	]
}
