{
  "accessors": [
    {
      "bufferView": 3,
      "componentType": 5126,
      "count": 416,
      "max": [
        2.249535322189331,
        5.0476274490356445,
        4.911891460418701
      ],
      "min": [
        -2.249535322189331,
        1.0800063610076904,
        -8.788687705993652
      ],
      "type": "VEC3"
    },
    {
      "bufferView": 3,
      "byteOffset": 4992,
      "componentType": 5126,
      "count": 416,
      "max": [
        0.9977519512176514,
        0.9949394464492798,
        0.9561772346496582
      ],
      "min": [
        -0.9977519512176514,
        -0.9879825711250305,
        -0.9955496191978455
      ],
      "type": "VEC3"
    },
    {
      "bufferView": 2,
      "componentType": 5126,
      "count": 416,
      "max": [
        0.875,
        1.0
      ],
      "min": [
        0.1249999925494194,
        0.6249999403953552
      ],
      "type": "VEC2"
    },
    {
      "bufferView": 1,
      "componentType": 5125,
      "count": 624,
      "type": "SCALAR"
    },
    {
      "bufferView": 3,
      "byteOffset": 9984,
      "componentType": 5126,
      "count": 418,
      "max": [
        2.3628273010253906,
        5.0476274490356445,
        4.411980628967285
      ],
      "min": [
        -2.3628273010253906,
        -0.026806384325027466,
        -3.136613130569458
      ],
      "type": "VEC3"
    },
    {
      "bufferView": 3,
      "byteOffset": 15000,
      "componentType": 5126,
      "count": 418,
      "max": [
        0.9994232058525085,
        0.9352718591690063,
        0.9687948226928711
      ],
      "min": [
        -0.9994232058525085,
        -0.9997345805168152,
        -0.987512469291687
      ],
      "type": "VEC3"
    },
    {
      "bufferView": 2,
      "byteOffset": 3328,
      "componentType": 5126,
      "count": 418,
      "max": [
        0.875,
        1.0
      ],
      "min": [
        0.125,
        0.625
      ],
      "type": "VEC2"
    },
    {
      "bufferView": 1,
      "byteOffset": 2496,
      "componentType": 5125,
      "count": 630,
      "type": "SCALAR"
    },
    {
      "bufferView": 3,
      "byteOffset": 20016,
      "componentType": 5126,
      "count": 38,
      "max": [
        1.3045175075531006,
        5.0476274490356445,
        5.248190402984619
      ],
      "min": [
        -0.903587818145752,
        3.0290653705596924,
        2.9502038955688477
      ],
      "type": "VEC3"
    },
    {
      "bufferView": 3,
      "byteOffset": 20472,
      "componentType": 5126,
      "count": 38,
      "max": [
        0.8632528781890869,
        0.5196146368980408,
        0.8544009923934937
      ],
      "min": [
        -0.6397550106048584,
        -0.9905023574829102,
        0.13749626278877258
      ],
      "type": "VEC3"
    },
    {
      "bufferView": 2,
      "byteOffset": 6672,
      "componentType": 5126,
      "count": 38,
      "max": [
        0.875,
        1.0
      ],
      "min": [
        0.1249999925494194,
        0.6249999403953552
      ],
      "type": "VEC2"
    },
    {
      "bufferView": 1,
      "byteOffset": 5016,
      "componentType": 5125,
      "count": 54,
      "type": "SCALAR"
    },
    {
      "bufferView": 3,
      "byteOffset": 20928,
      "componentType": 5126,
      "count": 16,
      "max": [
        0.4009714424610138,
        3.4209792613983154,
        5.248190402984619
      ],
      "min": [
        -0.4009709656238556,
        3.0771830081939697,
        5.170567512512207
      ],
      "type": "VEC3"
    },
    {
      "bufferView": 3,
      "byteOffset": 21120,
      "componentType": 5126,
      "count": 16,
      "max": [
        -2.6475960721319745e-24,
        -0.19337336719036102,
        0.9811252355575562
      ],
      "min": [
        -3.949925160054759e-24,
        -0.24045614898204803,
        0.9706600904464722
      ],
      "type": "VEC3"
    },
    {
      "bufferView": 2,
      "byteOffset": 6976,
      "componentType": 5126,
      "count": 16,
      "max": [
        0.625,
        0.125
      ],
      "min": [
        0.375,
        0.0
      ],
      "type": "VEC2"
    },
    {
      "bufferView": 1,
      "byteOffset": 5232,
      "componentType": 5125,
      "count": 24,
      "type": "SCALAR"
    },
    {
      "bufferView": 5,
      "componentType": 5126,
      "count": 44,
      "max": [
        100.0,
        0.3772068917751312,
        2.3841864731366513e-06,
        0.0,
        0.3604271709918976,
        99.99999237060547,
        0.9984254837036133,
        0.0,
        0.11125367134809494,
        0.9999999403953552,
        99.99999237060547,
        0.0,
        2.2832300662994385,
        3.4150707721710205,
        3.5539846420288086,
        1.0
      ],
      "min": [
        0.9204309582710266,
        -0.39090514183044434,
        -0.0036341603845357895,
        0.0,
        -0.3680044710636139,
        -0.9984286427497864,
        -0.9999999403953552,
        0.0,
        -0.1318313181400299,
        -0.9984257817268372,
        -0.9985079169273376,
        0.0,
        -2.180844783782959,
        -7.557722091674805,
        -4.417222023010254,
        1.0
      ],
      "type": "MAT4"
    },
    {
      "bufferView": 0,
      "componentType": 5123,
      "count": 416,
      "type": "VEC4"
    },
    {
      "bufferView": 4,
      "componentType": 5126,
      "count": 416,
      "max": [
        1.0,
        0.49955058097839355,
        0.30279064178466797,
        0.13784842193126678
      ],
      "min": [
        0.32440662384033203,
        0.0,
        0.0,
        0.0
      ],
      "type": "VEC4"
    },
    {
      "bufferView": 0,
      "byteOffset": 3328,
      "componentType": 5123,
      "count": 418,
      "type": "VEC4"
    },
    {
      "bufferView": 4,
      "byteOffset": 6656,
      "componentType": 5126,
      "count": 418,
      "max": [
        1.0,
        0.4998992383480072,
        0.3189757764339447,
        0.137054905295372
      ],
      "min": [
        0.32440662384033203,
        0.0,
        0.0,
        0.0
      ],
      "type": "VEC4"
    },
    {
      "bufferView": 0,
      "byteOffset": 6672,
      "componentType": 5123,
      "count": 38,
      "type": "VEC4"
    },
    {
      "bufferView": 4,
      "byteOffset": 13344,
      "componentType": 5126,
      "count": 38,
      "max": [
        1.0,
        0.16623179614543915,
        0.08346432447433472,
        0.0
      ],
      "min": [
        0.7503038644790649,
        0.0,
        0.0,
        0.0
      ],
      "type": "VEC4"
    },
    {
      "bufferView": 0,
      "byteOffset": 6976,
      "componentType": 5123,
      "count": 16,
      "type": "VEC4"
    },
    {
      "bufferView": 4,
      "byteOffset": 13952,
      "componentType": 5126,
      "count": 16,
      "max": [
        1.0,
        0.0,
        0.0,
        0.0
      ],
      "min": [
        1.0,
        0.0,
        0.0,
        0.0
      ],
      "type": "VEC4"
    },
    {
      "bufferView": 6,
      "componentType": 5126,
      "count": 51,
      "max": [
        1.6666666269302368
      ],
      "min": [
        0.0
      ],
      "type": "SCALAR"
    },
    {
      "bufferView": 8,
      "componentType": 5126,
      "count": 51,
      "max": [
        0.09839009493589401,
        -1.1593008508725688e-07,
        -2.7140044878137815e-08,
        0.9951479434967041
      ],
      "min": [
        0.09839009493589401,
        -1.1593008508725688e-07,
        -2.7140044878137815e-08,
        0.9951479434967041
      ],
      "type": "VEC4"
    },
    {
      "bufferView": 6,
      "byteOffset": 204,
      "componentType": 5126,
      "count": 81,
      "max": [
        1.6666666269302368
      ],
      "min": [
        0.0
      ],
      "type": "SCALAR"
    },
    {
      "bufferView": 8,
      "byteOffset": 816,
      "componentType": 5126,
      "count": 81,
      "max": [
        -0.07054194062948227,
        -0.007426793221384287,
        0.16594798862934113,
        0.9912578463554382
      ],
      "min": [
        -0.16242972016334534,
        -0.023470530286431313,
        0.08545202016830444,
        0.9742451906204224
      ],
      "type": "VEC4"
    },
    {
      "bufferView": 6,
      "byteOffset": 528,
      "componentType": 5126,
      "count": 81,
      "max": [
        1.6666666269302368
      ],
      "min": [
        0.0
      ],
      "type": "SCALAR"
    },
    {
      "bufferView": 8,
      "byteOffset": 2112,
      "componentType": 5126,
      "count": 81,
      "max": [
        0.8842945694923401,
        0.08953987807035446,
        0.035692282021045685,
        0.8025734424591064
      ],
      "min": [
        0.593438446521759,
        -0.07658320665359497,
        -0.05357883870601654,
        0.45512086153030396
      ],
      "type": "VEC4"
    },
    {
      "bufferView": 6,
      "byteOffset": 852,
      "componentType": 5126,
      "count": 81,
      "max": [
        1.6666666269302368
      ],
      "min": [
        0.0
      ],
      "type": "SCALAR"
    },
    {
      "bufferView": 8,
      "byteOffset": 3408,
      "componentType": 5126,
      "count": 81,
      "max": [
        -0.10130763053894043,
        0.03932653367519379,
        -0.03014126606285572,
        0.9913288950920105
      ],
      "min": [
        -0.15064291656017303,
        0.02125270664691925,
        -0.1771537959575653,
        0.9757275581359863
      ],
      "type": "VEC4"
    },
    {
      "bufferView": 6,
      "byteOffset": 1176,
      "componentType": 5126,
      "count": 81,
      "max": [
        1.6666666269302368
      ],
      "min": [
        0.0
      ],
      "type": "SCALAR"
    },
    {
      "bufferView": 8,
      "byteOffset": 4704,
      "componentType": 5126,
      "count": 81,
      "max": [
        0.826490044593811,
        -0.030027179047465324,
        0.09119182080030441,
        0.8230598568916321
      ],
      "min": [
        0.5567468404769897,
        -0.1627642959356308,
        0.011730737052857876,
        0.5457608699798584
      ],
      "type": "VEC4"
    },
    {
      "bufferView": 6,
      "byteOffset": 1500,
      "componentType": 5126,
      "count": 81,
      "max": [
        1.6666666269302368
      ],
      "min": [
        0.0
      ],
      "type": "SCALAR"
    },
    {
      "bufferView": 8,
      "byteOffset": 6000,
      "componentType": 5126,
      "count": 81,
      "max": [
        0.23054775595664978,
        0.06060921400785446,
        0.2339654266834259,
        0.9957342743873596
      ],
      "min": [
        -0.15401828289031982,
        -0.05413302034139633,
        -0.1742953509092331,
        0.9671554565429688
      ],
      "type": "VEC4"
    },
    {
      "bufferView": 6,
      "byteOffset": 1824,
      "componentType": 5126,
      "count": 51,
      "max": [
        1.6666666269302368
      ],
      "min": [
        0.0
      ],
      "type": "SCALAR"
    },
    {
      "bufferView": 8,
      "byteOffset": 7296,
      "componentType": 5126,
      "count": 51,
      "max": [
        0.0482475720345974,
        -1.1608485550596015e-07,
        -4.195838787524053e-09,
        0.9988353848457336
      ],
      "min": [
        0.0482475720345974,
        -1.1608485550596015e-07,
        -4.195838787524053e-09,
        0.9988353848457336
      ],
      "type": "VEC4"
    },
    {
      "bufferView": 6,
      "byteOffset": 2028,
      "componentType": 5126,
      "count": 51,
      "max": [
        1.6666666269302368
      ],
      "min": [
        0.0
      ],
      "type": "SCALAR"
    },
    {
      "bufferView": 8,
      "byteOffset": 8112,
      "componentType": 5126,
      "count": 51,
      "max": [
        -0.10589639842510223,
        -2.5756192734149863e-09,
        -3.746355670131152e-09,
        0.9943771958351135
      ],
      "min": [
        -0.10589639842510223,
        -2.5756192734149863e-09,
        -3.746355670131152e-09,
        0.9943771958351135
      ],
      "type": "VEC4"
    },
    {
      "bufferView": 6,
      "byteOffset": 2232,
      "componentType": 5126,
      "count": 81,
      "max": [
        1.6666666269302368
      ],
      "min": [
        0.0
      ],
      "type": "SCALAR"
    },
    {
      "bufferView": 8,
      "byteOffset": 8928,
      "componentType": 5126,
      "count": 81,
      "max": [
        -0.0999966487288475,
        0.03852803260087967,
        -0.14919522404670715,
        0.9757757186889648
      ],
      "min": [
        -0.15530025959014893,
        0.01726139336824417,
        -0.22728149592876434,
        0.9685276746749878
      ],
      "type": "VEC4"
    },
    {
      "bufferView": 6,
      "byteOffset": 2556,
      "componentType": 5126,
      "count": 81,
      "max": [
        1.6666666269302368
      ],
      "min": [
        0.0
      ],
      "type": "SCALAR"
    },
    {
      "bufferView": 8,
      "byteOffset": 10224,
      "componentType": 5126,
      "count": 81,
      "max": [
        0.7880342602729797,
        -0.12147555500268936,
        0.15992537140846252,
        0.7035836577415466
      ],
      "min": [
        0.6663429737091064,
        -0.1880982667207718,
        0.09116481244564056,
        0.5908025503158569
      ],
      "type": "VEC4"
    },
    {
      "bufferView": 6,
      "byteOffset": 2880,
      "componentType": 5126,
      "count": 81,
      "max": [
        1.6666666269302368
      ],
      "min": [
        0.0
      ],
      "type": "SCALAR"
    },
    {
      "bufferView": 8,
      "byteOffset": 11520,
      "componentType": 5126,
      "count": 81,
      "max": [
        -0.07730057835578918,
        -0.01396546047180891,
        0.20695360004901886,
        0.981671154499054
      ],
      "min": [
        -0.14150585234165192,
        -0.035538166761398315,
        0.12261693179607391,
        0.9748093485832214
      ],
      "type": "VEC4"
    },
    {
      "bufferView": 6,
      "byteOffset": 3204,
      "componentType": 5126,
      "count": 81,
      "max": [
        1.6666666269302368
      ],
      "min": [
        0.0
      ],
      "type": "SCALAR"
    },
    {
      "bufferView": 8,
      "byteOffset": 12816,
      "componentType": 5126,
      "count": 81,
      "max": [
        0.7680538296699524,
        0.18757475912570953,
        -0.10667238384485245,
        0.7401592135429382
      ],
      "min": [
        0.6242902874946594,
        0.1301986277103424,
        -0.1650504469871521,
        0.6167194843292236
      ],
      "type": "VEC4"
    },
    {
      "bufferView": 6,
      "byteOffset": 3528,
      "componentType": 5126,
      "count": 81,
      "max": [
        1.6666666269302368
      ],
      "min": [
        0.0
      ],
      "type": "SCALAR"
    },
    {
      "bufferView": 8,
      "byteOffset": 14112,
      "componentType": 5126,
      "count": 81,
      "max": [
        0.8495209217071533,
        0.07092177122831345,
        0.021610012277960777,
        0.6005585789680481
      ],
      "min": [
        0.7987996339797974,
        -0.06568089127540588,
        -0.051212381571531296,
        0.5232324004173279
      ],
      "type": "VEC4"
    },
    {
      "bufferView": 6,
      "byteOffset": 3852,
      "componentType": 5126,
      "count": 81,
      "max": [
        1.6666666269302368
      ],
      "min": [
        0.0
      ],
      "type": "SCALAR"
    },
    {
      "bufferView": 8,
      "byteOffset": 15408,
      "componentType": 5126,
      "count": 81,
      "max": [
        0.10328317433595657,
        0.008912005461752415,
        0.19988209009170532,
        0.9946472644805908
      ],
      "min": [
        0.10123516619205475,
        -0.00945668201893568,
        -0.18802562355995178,
        0.9745242595672607
      ],
      "type": "VEC4"
    },
    {
      "bufferView": 6,
      "byteOffset": 4176,
      "componentType": 5126,
      "count": 80,
      "max": [
        1.6666666269302368
      ],
      "min": [
        0.0
      ],
      "type": "SCALAR"
    },
    {
      "bufferView": 8,
      "byteOffset": 16704,
      "componentType": 5126,
      "count": 80,
      "max": [
        0.1315356194972992,
        0.02395543083548546,
        -0.020889120176434517,
        0.9910977482795715
      ],
      "min": [
        0.13108766078948975,
        0.006073643919080496,
        -0.08243703097105026,
        0.9876468777656555
      ],
      "type": "VEC4"
    },
    {
      "bufferView": 6,
      "byteOffset": 4496,
      "componentType": 5126,
      "count": 81,
      "max": [
        1.6666666269302368
      ],
      "min": [
        0.0
      ],
      "type": "SCALAR"
    },
    {
      "bufferView": 8,
      "byteOffset": 17984,
      "componentType": 5126,
      "count": 81,
      "max": [
        -0.0660373866558075,
        -4.433553968397064e-09,
        0.08810531347990036,
        0.9977957606315613
      ],
      "min": [
        -0.06645216047763824,
        -0.03199617937207222,
        -1.6164973715149245e-07,
        0.9934026002883911
      ],
      "type": "VEC4"
    },
    {
      "bufferView": 6,
      "byteOffset": 4820,
      "componentType": 5126,
      "count": 81,
      "max": [
        1.6666666269302368
      ],
      "min": [
        0.0
      ],
      "type": "SCALAR"
    },
    {
      "bufferView": 8,
      "byteOffset": 19280,
      "componentType": 5126,
      "count": 81,
      "max": [
        -0.6845418810844421,
        0.00892212986946106,
        0.017138447612524033,
        0.7258194088935852
      ],
      "min": [
        -0.6883738040924072,
        -0.05361741781234741,
        -0.10337314754724503,
        0.7195457816123962
      ],
      "type": "VEC4"
    },
    {
      "bufferView": 6,
      "byteOffset": 5144,
      "componentType": 5126,
      "count": 47,
      "max": [
        1.6666666269302368
      ],
      "min": [
        0.0
      ],
      "type": "SCALAR"
    },
    {
      "bufferView": 7,
      "componentType": 5126,
      "count": 47,
      "max": [
        -6.489240256257744e-10,
        1.192092469182171e-07,
        5.778770173492376e-08
      ],
      "min": [
        -6.489249138041941e-10,
        1.192092469182171e-07,
        5.778770173492376e-08
      ],
      "type": "VEC3"
    },
    {
      "bufferView": 6,
      "byteOffset": 5332,
      "componentType": 5126,
      "count": 29,
      "max": [
        1.6666666269302368
      ],
      "min": [
        0.0
      ],
      "type": "SCALAR"
    },
    {
      "bufferView": 8,
      "byteOffset": 20576,
      "componentType": 5126,
      "count": 29,
      "max": [
        0.9990236163139343,
        -1.782566594332735e-10,
        -9.527587963020778e-07,
        -0.04417957365512848
      ],
      "min": [
        0.9990236163139343,
        -1.7825667331106132e-10,
        -9.527587963020778e-07,
        -0.04417957365512848
      ],
      "type": "VEC4"
    },
    {
      "bufferView": 6,
      "byteOffset": 5448,
      "componentType": 5126,
      "count": 81,
      "max": [
        1.6666666269302368
      ],
      "min": [
        0.0
      ],
      "type": "SCALAR"
    },
    {
      "bufferView": 7,
      "byteOffset": 564,
      "componentType": 5126,
      "count": 81,
      "max": [
        1.5027594566345215,
        -3.5033538341522217,
        4.140204906463623
      ],
      "min": [
        1.4394052028656006,
        -4.129196643829346,
        2.8990674018859863
      ],
      "type": "VEC3"
    },
    {
      "bufferView": 6,
      "byteOffset": 5772,
      "componentType": 5126,
      "count": 44,
      "max": [
        1.6666666269302368
      ],
      "min": [
        0.0
      ],
      "type": "SCALAR"
    },
    {
      "bufferView": 8,
      "byteOffset": 21040,
      "componentType": 5126,
      "count": 44,
      "max": [
        -0.5138083100318909,
        -3.959798391406366e-07,
        0.001982982736080885,
        0.8577361106872559
      ],
      "min": [
        -0.5571231842041016,
        -0.016907284036278725,
        2.6565703592495993e-07,
        0.8304298520088196
      ],
      "type": "VEC4"
    },
    {
      "bufferView": 6,
      "byteOffset": 5948,
      "componentType": 5126,
      "count": 51,
      "max": [
        1.6666666269302368
      ],
      "min": [
        0.0
      ],
      "type": "SCALAR"
    },
    {
      "bufferView": 8,
      "byteOffset": 21744,
      "componentType": 5126,
      "count": 51,
      "max": [
        0.9962632060050964,
        0.002438883064314723,
        0.03003584034740925,
        -0.0809415727853775
      ],
      "min": [
        0.9962632060050964,
        0.002438883064314723,
        0.03003584034740925,
        -0.0809415727853775
      ],
      "type": "VEC4"
    },
    {
      "bufferView": 6,
      "byteOffset": 6152,
      "componentType": 5126,
      "count": 81,
      "max": [
        1.6666666269302368
      ],
      "min": [
        0.0
      ],
      "type": "SCALAR"
    },
    {
      "bufferView": 7,
      "byteOffset": 1536,
      "componentType": 5126,
      "count": 81,
      "max": [
        -1.560843586921692,
        -3.5800373554229736,
        4.1739420890808105
      ],
      "min": [
        -1.5897817611694336,
        -4.052785873413086,
        2.8995940685272217
      ],
      "type": "VEC3"
    },
    {
      "bufferView": 6,
      "byteOffset": 6476,
      "componentType": 5126,
      "count": 81,
      "max": [
        1.6666666269302368
      ],
      "min": [
        0.0
      ],
      "type": "SCALAR"
    },
    {
      "bufferView": 8,
      "byteOffset": 22560,
      "componentType": 5126,
      "count": 81,
      "max": [
        -0.5686096549034119,
        0.024389469996094704,
        -0.017689092084765434,
        0.8221206665039063
      ],
      "min": [
        -0.5870911478996277,
        0.020939139649271965,
        -0.01901526190340519,
        0.8089597225189209
      ],
      "type": "VEC4"
    },
    {
      "bufferView": 6,
      "byteOffset": 6800,
      "componentType": 5126,
      "count": 29,
      "max": [
        1.6666666269302368
      ],
      "min": [
        0.0
      ],
      "type": "SCALAR"
    },
    {
      "bufferView": 8,
      "byteOffset": 23856,
      "componentType": 5126,
      "count": 29,
      "max": [
        0.9928383231163025,
        -6.579465704897869e-12,
        -9.468458870287577e-07,
        -0.11946595460176468
      ],
      "min": [
        0.9928383231163025,
        -6.579473077472642e-12,
        -9.468458870287577e-07,
        -0.11946595460176468
      ],
      "type": "VEC4"
    },
    {
      "bufferView": 6,
      "byteOffset": 6916,
      "componentType": 5126,
      "count": 81,
      "max": [
        1.6666666269302368
      ],
      "min": [
        0.0
      ],
      "type": "SCALAR"
    },
    {
      "bufferView": 7,
      "byteOffset": 2508,
      "componentType": 5126,
      "count": 81,
      "max": [
        -1.7820191383361816,
        -2.1530942916870117,
        0.5869878530502319
      ],
      "min": [
        -1.8076889514923096,
        -2.6066372394561768,
        -0.478023886680603
      ],
      "type": "VEC3"
    },
    {
      "bufferView": 6,
      "byteOffset": 7240,
      "componentType": 5126,
      "count": 44,
      "max": [
        1.6666666269302368
      ],
      "min": [
        0.0
      ],
      "type": "SCALAR"
    },
    {
      "bufferView": 8,
      "byteOffset": 24320,
      "componentType": 5126,
      "count": 44,
      "max": [
        -0.550329864025116,
        0.02585005946457386,
        2.6241770001433906e-07,
        0.8349473476409912
      ],
      "min": [
        -0.6165698766708374,
        -3.9813392049836693e-07,
        -0.005828299093991518,
        0.786854088306427
      ],
      "type": "VEC4"
    },
    {
      "bufferView": 6,
      "byteOffset": 7416,
      "componentType": 5126,
      "count": 41,
      "max": [
        1.6666666269302368
      ],
      "min": [
        0.0
      ],
      "type": "SCALAR"
    },
    {
      "bufferView": 7,
      "byteOffset": 3480,
      "componentType": 5126,
      "count": 41,
      "max": [
        5.27128962701795e-09,
        9.992007221626409e-14,
        9.266216238756897e-08
      ],
      "min": [
        5.27128873883953e-09,
        9.903189379656396e-14,
        9.266216238756897e-08
      ],
      "type": "VEC3"
    },
    {
      "bufferView": 6,
      "byteOffset": 7580,
      "componentType": 5126,
      "count": 51,
      "max": [
        1.6666666269302368
      ],
      "min": [
        0.0
      ],
      "type": "SCALAR"
    },
    {
      "bufferView": 8,
      "byteOffset": 25024,
      "componentType": 5126,
      "count": 51,
      "max": [
        0.9928383231163025,
        -4.097945398816305e-13,
        -9.468448070037994e-07,
        -0.11946569383144379
      ],
      "min": [
        0.9928383231163025,
        -4.098015058805887e-13,
        -9.468448070037994e-07,
        -0.11946569383144379
      ],
      "type": "VEC4"
    },
    {
      "bufferView": 6,
      "byteOffset": 7784,
      "componentType": 5126,
      "count": 81,
      "max": [
        1.6666666269302368
      ],
      "min": [
        0.0
      ],
      "type": "SCALAR"
    },
    {
      "bufferView": 7,
      "byteOffset": 3972,
      "componentType": 5126,
      "count": 81,
      "max": [
        1.7593311071395874,
        -2.1526052951812744,
        0.6323332190513611
      ],
      "min": [
        1.7465866804122925,
        -2.6577577590942383,
        -0.668057382106781
      ],
      "type": "VEC3"
    },
    {
      "bufferView": 6,
      "byteOffset": 8108,
      "componentType": 5126,
      "count": 81,
      "max": [
        1.6666666269302368
      ],
      "min": [
        0.0
      ],
      "type": "SCALAR"
    },
    {
      "bufferView": 8,
      "byteOffset": 25840,
      "componentType": 5126,
      "count": 81,
      "max": [
        -0.5098796486854553,
        -3.9813392049836693e-07,
        2.6241770001433906e-07,
        0.8601998686790466
      ],
      "min": [
        -0.550329864025116,
        -0.008167748339474201,
        -0.0034959923941642046,
        0.8349473476409912
      ],
      "type": "VEC4"
    }
  ],
  "animations": [
    {
      "channels": [
        {
          "sampler": 0,
          "target": {
            "node": 17,
            "path": "rotation"
          }
        },
        {
          "sampler": 1,
          "target": {
            "node": 20,
            "path": "rotation"
          }
        },
        {
          "sampler": 2,
          "target": {
            "node": 19,
            "path": "rotation"
          }
        },
        {
          "sampler": 3,
          "target": {
            "node": 23,
            "path": "rotation"
          }
        },
        {
          "sampler": 4,
          "target": {
            "node": 22,
            "path": "rotation"
          }
        },
        {
          "sampler": 5,
          "target": {
            "node": 16,
            "path": "rotation"
          }
        },
        {
          "sampler": 6,
          "target": {
            "node": 15,
            "path": "rotation"
          }
        },
        {
          "sampler": 7,
          "target": {
            "node": 14,
            "path": "rotation"
          }
        },
        {
          "sampler": 8,
          "target": {
            "node": 26,
            "path": "rotation"
          }
        },
        {
          "sampler": 9,
          "target": {
            "node": 25,
            "path": "rotation"
          }
        },
        {
          "sampler": 10,
          "target": {
            "node": 29,
            "path": "rotation"
          }
        },
        {
          "sampler": 11,
          "target": {
            "node": 28,
            "path": "rotation"
          }
        },
        {
          "sampler": 12,
          "target": {
            "node": 13,
            "path": "rotation"
          }
        },
        {
          "sampler": 13,
          "target": {
            "node": 34,
            "path": "rotation"
          }
        },
        {
          "sampler": 14,
          "target": {
            "node": 33,
            "path": "rotation"
          }
        },
        {
          "sampler": 15,
          "target": {
            "node": 32,
            "path": "rotation"
          }
        },
        {
          "sampler": 16,
          "target": {
            "node": 31,
            "path": "rotation"
          }
        },
        {
          "sampler": 17,
          "target": {
            "node": 37,
            "path": "translation"
          }
        },
        {
          "sampler": 18,
          "target": {
            "node": 37,
            "path": "rotation"
          }
        },
        {
          "sampler": 19,
          "target": {
            "node": 36,
            "path": "translation"
          }
        },
        {
          "sampler": 20,
          "target": {
            "node": 36,
            "path": "rotation"
          }
        },
        {
          "sampler": 21,
          "target": {
            "node": 40,
            "path": "rotation"
          }
        },
        {
          "sampler": 22,
          "target": {
            "node": 39,
            "path": "translation"
          }
        },
        {
          "sampler": 23,
          "target": {
            "node": 39,
            "path": "rotation"
          }
        },
        {
          "sampler": 24,
          "target": {
            "node": 43,
            "path": "rotation"
          }
        },
        {
          "sampler": 25,
          "target": {
            "node": 42,
            "path": "translation"
          }
        },
        {
          "sampler": 26,
          "target": {
            "node": 42,
            "path": "rotation"
          }
        },
        {
          "sampler": 27,
          "target": {
            "node": 54,
            "path": "translation"
          }
        },
        {
          "sampler": 28,
          "target": {
            "node": 54,
            "path": "rotation"
          }
        },
        {
          "sampler": 29,
          "target": {
            "node": 53,
            "path": "translation"
          }
        },
        {
          "sampler": 30,
          "target": {
            "node": 53,
            "path": "rotation"
          }
        }
      ],
      "name": "Armature|ArmatureAction",
      "samplers": [
        {
          "input": 25,
          "interpolation": "LINEAR",
          "output": 26
        },
        {
          "input": 27,
          "interpolation": "LINEAR",
          "output": 28
        },
        {
          "input": 29,
          "interpolation": "LINEAR",
          "output": 30
        },
        {
          "input": 31,
          "interpolation": "LINEAR",
          "output": 32
        },
        {
          "input": 33,
          "interpolation": "LINEAR",
          "output": 34
        },
        {
          "input": 35,
          "interpolation": "LINEAR",
          "output": 36
        },
        {
          "input": 37,
          "interpolation": "LINEAR",
          "output": 38
        },
        {
          "input": 39,
          "interpolation": "LINEAR",
          "output": 40
        },
        {
          "input": 41,
          "interpolation": "LINEAR",
          "output": 42
        },
        {
          "input": 43,
          "interpolation": "LINEAR",
          "output": 44
        },
        {
          "input": 45,
          "interpolation": "LINEAR",
          "output": 46
        },
        {
          "input": 47,
          "interpolation": "LINEAR",
          "output": 48
        },
        {
          "input": 49,
          "interpolation": "LINEAR",
          "output": 50
        },
        {
          "input": 51,
          "interpolation": "LINEAR",
          "output": 52
        },
        {
          "input": 53,
          "interpolation": "LINEAR",
          "output": 54
        },
        {
          "input": 55,
          "interpolation": "LINEAR",
          "output": 56
        },
        {
          "input": 57,
          "interpolation": "LINEAR",
          "output": 58
        },
        {
          "input": 59,
          "interpolation": "LINEAR",
          "output": 60
        },
        {
          "input": 61,
          "interpolation": "LINEAR",
          "output": 62
        },
        {
          "input": 63,
          "interpolation": "LINEAR",
          "output": 64
        },
        {
          "input": 65,
          "interpolation": "LINEAR",
          "output": 66
        },
        {
          "input": 67,
          "interpolation": "LINEAR",
          "output": 68
        },
        {
          "input": 69,
          "interpolation": "LINEAR",
          "output": 70
        },
        {
          "input": 71,
          "interpolation": "LINEAR",
          "output": 72
        },
        {
          "input": 73,
          "interpolation": "LINEAR",
          "output": 74
        },
        {
          "input": 75,
          "interpolation": "LINEAR",
          "output": 76
        },
        {
          "input": 77,
          "interpolation": "LINEAR",
          "output": 78
        },
        {
          "input": 79,
          "interpolation": "LINEAR",
          "output": 80
        },
        {
          "input": 81,
          "interpolation": "LINEAR",
          "output": 82
        },
        {
          "input": 83,
          "interpolation": "LINEAR",
          "output": 84
        },
        {
          "input": 85,
          "interpolation": "LINEAR",
          "output": 86
        }
      ]
    }
  ],
  "asset": {
    "extras": {
      "author": "galiulinEldar (https://sketchfab.com/galiulinEldar)",
      "license": "CC-BY-4.0 (http://creativecommons.org/licenses/by/4.0/)",
      "source": "https://sketchfab.com/3d-models/red-panda-911d1a948ae74042b7f16fa8fe87924c",
      "title": "Red panda"
    },
    "generator": "Sketchfab-12.67.0",
    "version": "2.0"
  },
  "bufferViews": [
    {
      "buffer": 0,
      "byteLength": 7104,
      "byteStride": 8,
      "name": "shortBufferViews",
      "target": 34962
    },
    {
      "buffer": 0,
      "byteLength": 5328,
      "byteOffset": 7104,
      "name": "floatBufferViews",
      "target": 34963
    },
    {
      "buffer": 0,
      "byteLength": 7104,
      "byteOffset": 12432,
      "byteStride": 8,
      "name": "floatBufferViews",
      "target": 34962
    },
    {
      "buffer": 0,
      "byteLength": 21312,
      "byteOffset": 19536,
      "byteStride": 12,
      "name": "floatBufferViews",
      "target": 34962
    },
    {
      "buffer": 0,
      "byteLength": 14208,
      "byteOffset": 40848,
      "byteStride": 16,
      "name": "floatBufferViews",
      "target": 34962
    },
    {
      "buffer": 0,
      "byteLength": 2816,
      "byteOffset": 55056,
      "name": "floatBufferViews"
    },
    {
      "buffer": 0,
      "byteLength": 8432,
      "byteOffset": 57872,
      "name": "floatBufferViews"
    },
    {
      "buffer": 0,
      "byteLength": 4944,
      "byteOffset": 66304,
      "byteStride": 12,
      "name": "floatBufferViews"
    },
    {
      "buffer": 0,
      "byteLength": 27136,
      "byteOffset": 71248,
      "byteStride": 16,
      "name": "floatBufferViews"
    }
  ],
  "buffers": [
    {
      "byteLength": 98384,
      "uri": "scene.bin"
    }
  ],
  "materials": [
    {
      "doubleSided": true,
      "name": "base",
      "pbrMetallicRoughness": {
        "baseColorFactor": [
          0.234551,
          0.0612461,
          0.0202886,
          1.0
        ],
        "metallicFactor": 0.0,
        "roughnessFactor": 0.9853361909722325
      }
    },
    {
      "doubleSided": true,
      "name": "baseTwo",
      "pbrMetallicRoughness": {
        "baseColorFactor": [
          0.0835317,
          0.0835317,
          0.0835317,
          1.0
        ],
        "metallicFactor": 0.0,
        "roughnessFactor": 0.9909638402343686
      }
    },
    {
      "doubleSided": true,
      "name": "face",
      "pbrMetallicRoughness": {
        "baseColorFactor": [
          0.8,
          0.8,
          0.8,
          1.0
        ],
        "metallicFactor": 0.0,
        "roughnessFactor": 0.8903260563228881
      }
    },
    {
      "doubleSided": true,
      "name": "nose",
      "pbrMetallicRoughness": {
        "baseColorFactor": [
          0.0,
          0.0,
          0.0,
          1.0
        ],
        "metallicFactor": 0.0
      }
    }
  ],
  "meshes": [
    {
      "name": "Cube_base_0",
      "primitives": [
        {
          "attributes": {
            "JOINTS_0": 17,
            "NORMAL": 1,
            "POSITION": 0,
            "TEXCOORD_0": 2,
            "WEIGHTS_0": 18
          },
          "indices": 3,
          "material": 0,
          "mode": 4
        }
      ]
    },
    {
      "name": "Cube_baseTwo_0",
      "primitives": [
        {
          "attributes": {
            "JOINTS_0": 19,
            "NORMAL": 5,
            "POSITION": 4,
            "TEXCOORD_0": 6,
            "WEIGHTS_0": 20
          },
          "indices": 7,
          "material": 1,
          "mode": 4
        }
      ]
    },
    {
      "name": "Cube_face_0",
      "primitives": [
        {
          "attributes": {
            "JOINTS_0": 21,
            "NORMAL": 9,
            "POSITION": 8,
            "TEXCOORD_0": 10,
            "WEIGHTS_0": 22
          },
          "indices": 11,
          "material": 2,
          "mode": 4
        }
      ]
    },
    {
      "name": "Cube_nose_0",
      "primitives": [
        {
          "attributes": {
            "JOINTS_0": 23,
            "NORMAL": 13,
            "POSITION": 12,
            "TEXCOORD_0": 14,
            "WEIGHTS_0": 24
          },
          "indices": 15,
          "material": 3,
          "mode": 4
        }
      ]
    }
  ],
  "nodes": [
    {
      "children": [
        1
      ],
      "matrix": [
        1.0,
        0.0,
        0.0,
        0.0,
        0.0,
        2.220446049250313e-16,
        -1.0,
        0.0,
        0.0,
        1.0,
        2.220446049250313e-16,
        0.0,
        0.0,
        0.0,
        0.0,
        1.0
      ],
      "name": "Sketchfab_model"
    },
    {
      "children": [
        2
      ],
      "matrix": [
        1.0,
        0.0,
        0.0,
        0.0,
        0.0,
        0.0,
        1.0,
        0.0,
        0.0,
        -1.0,
        0.0,
        0.0,
        0.0,
        0.0,
        0.0,
        1.0
      ],
      "name": "a2781e9381494fa0a0540201d84da83b.fbx"
    },
    {
      "children": [
        3
      ],
      "name": "Object_2"
    },
    {
      "children": [
        4,
        5
      ],
      "name": "RootNode"
    },
    {
      "name": "Cube",
      "rotation": [
        -0.7071068286895752,
        -7.01886229407227e-24,
        1.403772143270092e-23,
        0.7071067094802856
      ],
      "scale": [
        100.0,
        100.0,
        100.0
      ],
      "translation": [
        -1.3234889800848443e-20,
        -4.76837158203125e-05,
        2.384185791015625e-05
      ]
    },
    {
      "children": [
        6
      ],
      "name": "Armature",
      "rotation": [
        -0.16517983376979828,
        9.115859899090406e-17,
        -9.115859899090406e-17,
        0.9862634539604187
      ],
      "scale": [
        100.0,
        99.99999237060547,
        99.99999237060547
      ],
      "translation": [
        6.104047389071665e-14,
        274.90185546875,
        -288.5108642578125
      ]
    },
    {
      "children": [
        7,
        9,
        10,
        11,
        12,
        8
      ],
      "name": "Object_6"
    },
    {
      "children": [
        13,
        31,
        36,
        39,
        42,
        45,
        47,
        49,
        51,
        53
      ],
      "name": "_rootJoint"
    },
    {
      "matrix": [
        100.0,
        2.5642229549804725e-21,
        9.079829282554448e-22,
        0.0,
        9.079828573622453e-22,
        1.0169582801035854e-07,
        -99.99999247943,
        0.0,
        -2.564222763059671e-21,
        99.99999247943,
        1.0169582801035854e-07,
        0.0,
        -9.764071656473441e-21,
        -2.696713681871188e-05,
        1.682851871009916e-05,
        1.0
      ],
      "name": "Object_8"
    },
    {
      "mesh": 0,
      "name": "Object_9",
      "skin": 0
    },
    {
      "mesh": 1,
      "name": "Object_10",
      "skin": 0
    },
    {
      "mesh": 2,
      "name": "Object_11",
      "skin": 0
    },
    {
      "mesh": 3,
      "name": "Object_12",
      "skin": 0
    },
    {
      "children": [
        14,
        25,
        28
      ],
      "name": "body.003_01",
      "rotation": [
        0.8453004360198975,
        0.07092177122831345,
        -0.051212385296821594,
        0.5270811915397644
      ],
      "scale": [
        1.0,
        0.9999999403953552,
        0.9999999403953552
      ],
      "translation": [
        3.2370581689184766e-17,
        0.5222176313400269,
        -0.006667345762252808
      ]
    },
    {
      "children": [
        15
      ],
      "name": "body.002_02",
      "rotation": [
        -0.10589640587568283,
        -2.5756192734149863e-09,
        -3.746355670131152e-09,
        0.9943771958351135
      ],
      "scale": [
        0.9999999403953552,
        0.9999999403953552,
        1.0
      ],
      "translation": [
        1.257285475730896e-08,
        1.436103343963623,
        6.658956408500671e-08
      ]
    },
    {
      "children": [
        16
      ],
      "name": "body.001_03",
      "rotation": [
        0.048247579485177994,
        -1.1608486971681486e-07,
        -4.195839231613263e-09,
        0.9988355040550232
      ],
      "scale": [
        0.9999999403953552,
        0.9999999403953552,
        1.0
      ],
      "translation": [
        3.725290298461914e-09,
        1.1295799016952515,
        2.1420419216156006e-08
      ]
    },
    {
      "children": [
        17,
        19,
        22
      ],
      "name": "body_04",
      "rotation": [
        -0.09493129700422287,
        -0.02930086851119995,
        0.2339654117822647,
        0.9671554565429688
      ],
      "scale": [
        0.9999999403953552,
        1.0,
        0.9999999403953552
      ],
      "translation": [
        1.862645149230957e-08,
        1.36090087890625,
        -2.2258609533309937e-07
      ]
    },
    {
      "children": [
        18
      ],
      "name": "head_05",
      "rotation": [
        0.09839009493589401,
        -1.1593008508725688e-07,
        -2.7140043101780975e-08,
        0.9951479434967041
      ],
      "scale": [
        1.0,
        1.0,
        0.9999999403953552
      ],
      "translation": [
        5.960464477539063e-08,
        2.0307810306549072,
        -1.3504177331924438e-08
      ]
    },
    {
      "name": "head_end_029",
      "rotation": [
        8.673617379884035e-19,
        -6.505213034913027e-19,
        5.64237288394698e-37,
        1.0
      ],
      "translation": [
        1.1102230246251565e-16,
        1.8599268198013306,
        4.440892098500626e-16
      ]
    },
    {
      "children": [
        20
      ],
      "name": "left front.l.002_06",
      "rotation": [
        0.7943753004074097,
        -0.0242958664894104,
        0.002148780971765518,
        0.6069375872612
      ],
      "scale": [
        0.9999997019767761,
        0.9999997019767761,
        0.9999998211860657
      ],
      "translation": [
        1.6116746664047241,
        0.9467270374298096,
        1.100883960723877
      ]
    },
    {
      "children": [
        21
      ],
      "name": "left front.l.001_07",
      "rotation": [
        -0.1519637554883957,
        -0.01464783027768135,
        0.1659480184316635,
        0.9742453098297119
      ],
      "scale": [
        0.9999997615814209,
        0.9999999403953552,
        0.9999996423721313
      ],
      "translation": [
        -4.172325134277344e-07,
        1.1377719640731812,
        1.0132789611816406e-06
      ]
    },
    {
      "name": "left front.l.001_end_030",
      "rotation": [
        -1.3000027124613842e-33,
        4.163336342344337e-17,
        3.122502256758253e-17,
        1.0
      ],
      "translation": [
        0.0,
        1.008762240409851,
        0.0
      ]
    },
    {
      "children": [
        23
      ],
      "name": "right front.r.002_08",
      "rotation": [
        0.8169069290161133,
        -0.1627642810344696,
        0.09119182080030441,
        0.5457608103752136
      ],
      "scale": [
        0.9999995827674866,
        1.0000001192092896,
        1.0
      ],
      "translation": [
        -1.4868228435516357,
        0.924680769443512,
        1.0963484048843384
      ]
    },
    {
      "children": [
        24
      ],
      "name": "right front.r.001_09",
      "rotation": [
        -0.10130763053894043,
        0.023623928427696228,
        -0.09275314211845398,
        0.9902401566505432
      ],
      "scale": [
        1.0000003576278687,
        1.0000001192092896,
        1.000000238418579
      ],
      "translation": [
        2.5704503059387207e-07,
        1.1189281940460205,
        4.172325134277344e-07
      ]
    },
    {
      "name": "right front.r.001_end_031",
      "rotation": [
        1.3877787807814457e-17,
        2.7755575615628914e-17,
        -3.903127820947816e-17,
        1.0
      ],
      "translation": [
        0.0,
        1.0000274181365967,
        2.220446049250313e-16
      ]
    },
    {
      "children": [
        26
      ],
      "name": "right back.r.002_010",
      "rotation": [
        0.6663429737091064,
        -0.18809828162193298,
        0.15992535650730133,
        0.7035836577415466
      ],
      "scale": [
        0.9999998211860657,
        0.9999996423721313,
        1.000000238418579
      ],
      "translation": [
        -1.3829907178878784,
        1.1157662868499756,
        0.6370253562927246
      ]
    },
    {
      "children": [
        27
      ],
      "name": "right back.r.001_011",
      "rotation": [
        -0.15530027449131012,
        0.03852803260087967,
        -0.14919522404670715,
        0.9757757186889648
      ],
      "scale": [
        0.9999997615814209,
        1.000000238418579,
        0.9999999403953552
      ],
      "translation": [
        7.450580596923828e-08,
        1.0864475965499878,
        5.960464477539063e-08
      ]
    },
    {
      "name": "right back.r.001_end_032",
      "rotation": [
        2.407412430484045e-34,
        1.3877787807814457e-17,
        -1.734723475976807e-17,
        1.0
      ],
      "translation": [
        0.0,
        1.0704351663589478,
        0.0
      ]
    },
    {
      "children": [
        29
      ],
      "name": "right back.r.003_012",
      "rotation": [
        0.759395182132721,
        0.13160569965839386,
        -0.10786619782447815,
        0.6279839277267456
      ],
      "scale": [
        1.0,
        1.0,
        1.0000001192092896
      ],
      "translation": [
        1.3340723514556885,
        1.1038479804992676,
        0.5946442484855652
      ]
    },
    {
      "children": [
        30
      ],
      "name": "right back.r.004_013",
      "rotation": [
        -0.0796409547328949,
        -0.015321697108447552,
        0.1930103749036789,
        0.9778392314910889
      ],
      "scale": [
        1.0,
        1.0000001192092896,
        1.0000001192092896
      ],
      "translation": [
        -2.9243528842926025e-07,
        1.0936020612716675,
        2.9802322387695313e-08
      ]
    },
    {
      "name": "right back.r.004_end_033",
      "rotation": [
        4.81482486096809e-35,
        1.3877787807814457e-17,
        -3.469446951953614e-18,
        1.0
      ],
      "translation": [
        0.0,
        1.0704351663589478,
        0.0
      ]
    },
    {
      "children": [
        32
      ],
      "name": "tail_014",
      "rotation": [
        -0.6845418810844421,
        -0.05361741781234741,
        -0.10337314754724503,
        0.7196121215820313
      ],
      "scale": [
        1.0,
        0.9999998211860657,
        1.0
      ],
      "translation": [
        -1.5502157779678782e-08,
        0.5222176313400269,
        -0.006667347624897957
      ]
    },
    {
      "children": [
        33
      ],
      "name": "tail.001_015",
      "rotation": [
        -0.06636002659797668,
        -6.300313160068072e-09,
        -1.5809122544396814e-07,
        0.9977957606315613
      ],
      "translation": [
        -1.862645149230957e-08,
        1.6439108848571777,
        -7.078051567077637e-08
      ]
    },
    {
      "children": [
        34
      ],
      "name": "tail.002_016",
      "rotation": [
        0.13108766078948975,
        0.02395542711019516,
        -0.08243701606988907,
        0.9876468777656555
      ],
      "scale": [
        0.9999999403953552,
        0.9999998211860657,
        1.0000001192092896
      ],
      "translation": [
        -3.725290298461914e-08,
        1.5944011211395264,
        -2.2351741790771484e-08
      ]
    },
    {
      "children": [
        35
      ],
      "name": "tail.003_00",
      "rotation": [
        0.10145222395658493,
        0.008912005461752415,
        -0.1880256086587906,
        0.9768697023391724
      ],
      "scale": [
        0.9999999403953552,
        1.0,
        0.9999999403953552
      ],
      "translation": [
        -2.2351741790771484e-08,
        1.3768470287322998,
        -5.21540641784668e-08
      ]
    },
    {
      "name": "tail.003_end_034",
      "rotation": [
        3.469446951953614e-18,
        5.204170427930421e-18,
        1.3877787807814457e-16,
        1.0
      ],
      "translation": [
        0.0,
        0.9707110524177551,
        0.0
      ]
    },
    {
      "children": [
        37
      ],
      "name": "ik.f.l_017",
      "rotation": [
        -0.5571231842041016,
        -3.959798391406366e-07,
        2.656570075032505e-07,
        0.8304298520088196
      ],
      "translation": [
        1.4394052028656006,
        -4.129196643829346,
        4.140204906463623
      ]
    },
    {
      "children": [
        38
      ],
      "name": "left front.l_018",
      "rotation": [
        0.9990236163139343,
        -1.782360370405911e-10,
        -9.527587963020778e-07,
        -0.04417955502867699
      ],
      "scale": [
        1.0,
        1.0,
        1.0000165700912476
      ],
      "translation": [
        -6.489244697149843e-10,
        1.192092469182171e-07,
        5.778770173492376e-08
      ]
    },
    {
      "name": "left front.l_end_035",
      "rotation": [
        -1.3877787807814457e-17,
        3.8050308177439273e-23,
        -1.3234889800848443e-23,
        1.0
      ],
      "translation": [
        4.440892098500626e-16,
        0.7076612710952759,
        1.1102230246251565e-16
      ]
    },
    {
      "children": [
        40
      ],
      "name": "ik.f.r_019",
      "rotation": [
        -0.5870911478996277,
        0.024389469996094704,
        -0.017700310796499252,
        0.8089597225189209
      ],
      "scale": [
        1.0,
        0.9999999403953552,
        1.0
      ],
      "translation": [
        -1.5897817611694336,
        -3.6315789222717285,
        2.8995940685272217
      ]
    },
    {
      "children": [
        41
      ],
      "name": "right front.r_020",
      "rotation": [
        0.9962632060050964,
        0.0024388832971453667,
        0.03003584034740925,
        -0.0809415802359581
      ],
      "scale": [
        0.9999999403953552,
        1.0,
        0.9999960064888
      ],
      "translation": [
        2.60770320892334e-08,
        -1.1032569346980381e-07,
        1.4901161193847656e-08
      ]
    },
    {
      "name": "right front.r_end_036",
      "rotation": [
        -1.3877787807814457e-17,
        -2.938735877055719e-39,
        2.117582368135751e-22,
        1.0
      ],
      "translation": [
        -2.220446049250313e-16,
        0.7076613306999207,
        5.551115123125783e-17
      ]
    },
    {
      "children": [
        43
      ],
      "name": "ik.b.r_021",
      "rotation": [
        -0.550329864025116,
        -3.981339773417858e-07,
        2.624177284360485e-07,
        0.8349474668502808
      ],
      "translation": [
        -1.8076889514923096,
        -2.6066372394561768,
        0.5869878530502319
      ]
    },
    {
      "children": [
        44
      ],
      "name": "right back.r_022",
      "rotation": [
        0.9928382635116577,
        -6.6174938792573634e-12,
        -9.468458870287577e-07,
        -0.11946599185466766
      ],
      "scale": [
        1.0,
        0.9999999403953552,
        1.0000016689300537
      ],
      "translation": [
        -3.723779684605688e-08,
        5.960459503739912e-08,
        1.5932459973555524e-07
      ]
    },
    {
      "name": "right back.r_end_037",
      "rotation": [
        2.7755575615628914e-17,
        3.970466940254533e-23,
        2.6469779601696886e-23,
        1.0
      ],
      "translation": [
        0.0,
        0.972861647605896,
        0.0
      ]
    },
    {
      "children": [
        46
      ],
      "name": "knee.L_023",
      "rotation": [
        0.16517995297908783,
        -1.622863550047852e-32,
        -2.2277270987013192e-32,
        0.9862634539604187
      ],
      "translation": [
        1.8686714172363281,
        -3.438720703125,
        5.3911333084106445
      ]
    },
    {
      "name": "knee.L_end_038",
      "rotation": [
        0.0,
        -0.0,
        -2.0622896400713228e-32,
        1.0
      ],
      "translation": [
        2.220446049250313e-16,
        1.0,
        0.0
      ]
    },
    {
      "children": [
        48
      ],
      "name": "knee.R._024",
      "rotation": [
        0.16517995297908783,
        -1.622863550047852e-32,
        -2.2277270987013192e-32,
        0.9862634539604187
      ],
      "translation": [
        -1.842536211013794,
        -3.3769478797912598,
        5.412421703338623
      ]
    },
    {
      "name": "knee.R._end_039",
      "rotation": [
        0.0,
        -0.0,
        -2.0622896400713228e-32,
        1.0
      ],
      "translation": [
        0.0,
        1.0,
        0.0
      ]
    },
    {
      "children": [
        50
      ],
      "name": "knee.R.b_025",
      "rotation": [
        0.16517993807792664,
        -1.622863550047852e-32,
        -2.2277270987013192e-32,
        0.9862634539604187
      ],
      "scale": [
        1.0,
        1.0,
        0.9999999403953552
      ],
      "translation": [
        -1.8338245153427124,
        -1.0445131063461304,
        -1.3555660247802734
      ]
    },
    {
      "name": "knee.R.b_end_040",
      "rotation": [
        0.0,
        1.232595164407831e-32,
        -8.014543993793373e-33,
        1.0
      ],
      "translation": [
        0.0,
        1.0000001192092896,
        0.0
      ]
    },
    {
      "children": [
        52
      ],
      "name": "knee.L.b_026",
      "rotation": [
        0.16517993807792664,
        -1.622863550047852e-32,
        -2.2277270987013192e-32,
        0.9862634539604187
      ],
      "scale": [
        1.0,
        1.0,
        0.9999999403953552
      ],
      "translation": [
        1.668300986289978,
        -1.027482271194458,
        -1.4049842357635498
      ]
    },
    {
      "name": "knee.L.b_end_041",
      "rotation": [
        0.0,
        1.232595164407831e-32,
        -8.014543993793373e-33,
        1.0
      ],
      "translation": [
        0.0,
        1.0000001192092896,
        4.440892098500626e-16
      ]
    },
    {
      "children": [
        54
      ],
      "name": "ik.b.r.001_027",
      "rotation": [
        -0.550329864025116,
        -3.981339773417858e-07,
        2.624177284360485e-07,
        0.8349474668502808
      ],
      "translation": [
        1.7465866804122925,
        -2.1557021141052246,
        -0.668057382106781
      ]
    },
    {
      "children": [
        55
      ],
      "name": "right back.r.005_028",
      "rotation": [
        0.9928383231163025,
        -4.673180245551301e-13,
        -9.468448070037994e-07,
        -0.11946575343608856
      ],
      "scale": [
        1.0,
        1.0,
        1.0000001192092896
      ],
      "translation": [
        5.27128918292874e-09,
        9.947598300641403e-14,
        9.266216238756897e-08
      ]
    },
    {
      "name": "right back.r.005_end_042",
      "rotation": [
        2.7755575615628914e-17,
        3.970466940254533e-23,
        -2.6469779601696886e-23,
        1.0
      ],
      "translation": [
        2.220446049250313e-16,
        0.9728617072105408,
        0.0
      ]
    }
  ],
  "scene": 0,
  "scenes": [
    {
      "name": "Sketchfab_Scene",
      "nodes": [
        0
      ]
    }
  ],
  "skins": [
    {
      "inverseBindMatrices": 16,
      "joints": [
        7,
        13,
        14,
        15,
        16,
        17,
        18,
        19,
        20,
        21,
        22,
        23,
        24,
        25,
        26,
        27,
        28,
        29,
        30,
        31,
        32,
        33,
        34,
        35,
        36,
        37,
        38,
        39,
        40,
        41,
        42,
        43,
        44,
        45,
        46,
        47,
        48,
        49,
        50,
        51,
        52,
        53,
        54,
        55
      ],
      "skeleton": 7
    }
  ]
}
