{
	"asset":{
		"generator":"Khronos glTF Blender I/O v4.5.48",
		"version":"2.0"
	},
	"scene":0,
	"scenes":[
		{
			"name":"Scene",
			"nodes":[
				0
			]
		}
	],
	"nodes":[
		{
			"mesh":0,
			"name":"dragon_vrip_res3"
		}
	],
	"meshes":[
		{
			"name":"dragon_vrip_res3",
			"primitives":[
				{
					"attributes":{
						"POSITION":0,
						"NORMAL":1
					},
					"indices":2
				}
			]
		}
	],
	"accessors":[
		{
			"bufferView":0,
			"componentType":5126,
			"count":139604,
			"max":[
				0.09598249942064285,
				0.04082620143890381,
				-0.052774298936128616
			],
			"min":[
				-0.10767299681901932,
				-0.050050999969244,
				-0.19664399325847626
			],
			"type":"VEC3"
		},
		{
			"bufferView":1,
			"componentType":5126,
			"count":139604,
			"type":"VEC3"
		},
		{
			"bufferView":2,
			"componentType":5125,
			"count":139620,
			"type":"SCALAR"
		}
	],
	"bufferViews":[
		{
			"buffer":0,
			"byteLength":1675248,
			"byteOffset":0,
			"target":34962
		},
		{
			"buffer":0,
			"byteLength":1675248,
			"byteOffset":1675248,
			"target":34962
		},
		{
			"buffer":0,
			"byteLength":558480,
			"byteOffset":3350496,
			"target":34963
		}
	],
	"buffers":[
		{
			"byteLength":3908976,
			"uri":"dragon_47k.bin"
		}
	]
}
