{
	"asset":{
		"generator":"Khronos glTF Blender I/O v4.5.48",
		"version":"2.0"
	},
	"scene":0,
	"scenes":[
		{
			"name":"Scene",
			"nodes":[
				0
			]
		}
	],
	"nodes":[
		{
			"mesh":0,
			"name":"dragon_vrip_res2"
		}
	],
	"meshes":[
		{
			"name":"dragon_vrip_res2",
			"primitives":[
				{
					"attributes":{
						"POSITION":0,
						"NORMAL":1
					},
					"indices":2
				}
			]
		}
	],
	"accessors":[
		{
			"bufferView":0,
			"componentType":5126,
			"count":602903,
			"max":[
				0.09640619903802872,
				0.04113670065999031,
				-0.05273919925093651
			],
			"min":[
				-0.10818800330162048,
				-0.05034539848566055,
				-0.19713899493217468
			],
			"type":"VEC3"
		},
		{
			"bufferView":1,
			"componentType":5126,
			"count":602903,
			"type":"VEC3"
		},
		{
			"bufferView":2,
			"componentType":5125,
			"count":603093,
			"type":"SCALAR"
		}
	],
	"bufferViews":[
		{
			"buffer":0,
			"byteLength":7234836,
			"byteOffset":0,
			"target":34962
		},
		{
			"buffer":0,
			"byteLength":7234836,
			"byteOffset":7234836,
			"target":34962
		},
		{
			"buffer":0,
			"byteLength":2412372,
			"byteOffset":14469672,
			"target":34963
		}
	],
	"buffers":[
		{
			"byteLength":16882044,
			"uri":"dragon_200k.bin"
		}
	]
}
