{
	"asset":{
		"generator":"Khronos glTF Blender I/O v4.5.48",
		"version":"2.0"
	},
	"scene":0,
	"scenes":[
		{
			"name":"Scene",
			"nodes":[
				0
			]
		}
	],
	"nodes":[
		{
			"mesh":0,
			"name":"dragon_vrip_res4"
		}
	],
	"meshes":[
		{
			"name":"dragon_vrip_res4",
			"primitives":[
				{
					"attributes":{
						"POSITION":0,
						"NORMAL":1
					},
					"indices":2
				}
			]
		}
	],
	"accessors":[
		{
			"bufferView":0,
			"componentType":5126,
			"count":31800,
			"max":[
				0.09523569792509079,
				0.04082620143890381,
				-0.0528440997004509
			],
			"min":[
				-0.10758499801158905,
				-0.04983599856495857,
				-0.19634300470352173
			],
			"type":"VEC3"
		},
		{
			"bufferView":1,
			"componentType":5126,
			"count":31800,
			"type":"VEC3"
		},
		{
			"bufferView":2,
			"componentType":5123,
			"count":31800,
			"type":"SCALAR"
		}
	],
	"bufferViews":[
		{
			"buffer":0,
			"byteLength":381600,
			"byteOffset":0,
			"target":34962
		},
		{
			"buffer":0,
			"byteLength":381600,
			"byteOffset":381600,
			"target":34962
		},
		{
			"buffer":0,
			"byteLength":63600,
			"byteOffset":763200,
			"target":34963
		}
	],
	"buffers":[
		{
			"byteLength":826800,
			"uri":"dragon_11k.bin"
		}
	]
}
