{
	"asset":{
		"generator":"Khronos glTF Blender I/O v4.5.48",
		"version":"2.0"
	},
	"scene":0,
	"scenes":[
		{
			"name":"Scene",
			"nodes":[
				0
			]
		}
	],
	"nodes":[
		{
			"mesh":0,
			"name":"happy_vrip_res4"
		}
	],
	"meshes":[
		{
			"name":"happy_vrip_res4.001",
			"primitives":[
				{
					"attributes":{
						"POSITION":0,
						"NORMAL":1
					},
					"indices":2
				}
			]
		}
	],
	"accessors":[
		{
			"bufferView":0,
			"componentType":5126,
			"count":44285,
			"max":[
				0.035021599382162094,
				0.03379189968109131,
				-0.05005389824509621
			],
			"min":[
				-0.04596929997205734,
				-0.04726500064134598,
				-0.24757499992847443
			],
			"type":"VEC3"
		},
		{
			"bufferView":1,
			"componentType":5126,
			"count":44285,
			"type":"VEC3"
		},
		{
			"bufferView":2,
			"componentType":5123,
			"count":44295,
			"type":"SCALAR"
		}
	],
	"bufferViews":[
		{
			"buffer":0,
			"byteLength":531420,
			"byteOffset":0,
			"target":34962
		},
		{
			"buffer":0,
			"byteLength":531420,
			"byteOffset":531420,
			"target":34962
		},
		{
			"buffer":0,
			"byteLength":88590,
			"byteOffset":1062840,
			"target":34963
		}
	],
	"buffers":[
		{
			"byteLength":1151432,
			"uri":"happy_15k.bin"
		}
	]
}
