{
	"asset":{
		"generator":"Khronos glTF Blender I/O v4.5.48",
		"version":"2.0"
	},
	"scene":0,
	"scenes":[
		{
			"name":"Scene",
			"nodes":[
				0,
				4
			]
		}
	],
	"nodes":[
		{
			"mesh":0,
			"name":"\u82cf\u73ca\u5a1c"
		},
		{
			"name":"RootNode",
			"translation":[
				-3.814697265625e-06,
				0,
				0
			]
		},
		{
			"children":[
				1
			],
			"name":"Object_2",
			"translation":[
				0,
				-3.814697265625e-06,
				0
			]
		},
		{
			"children":[
				2
			],
			"name":"8057aba36f1447408b37a203d2e38a7a.fbx",
			"rotation":[
				0.70710688829422,
				0,
				0,
				0.7071066498756409
			],
			"scale":[
				0.009999998845160007,
				0.009999998845160007,
				0.009999998845160007
			]
		},
		{
			"children":[
				3
			],
			"name":"Sketchfab_model",
			"rotation":[
				-0.70710688829422,
				0,
				0,
				0.7071066498756409
			],
			"scale":[
				0.208898663520813,
				0.20889867842197418,
				0.20889867842197418
			],
			"translation":[
				-0.07552170753479004,
				-0.07173776626586914,
				-0.03910017013549805
			]
		}
	],
	"meshes":[
		{
			"name":"\u82cf\u73ca\u5a1c.002",
			"primitives":[
				{
					"attributes":{
						"POSITION":0,
						"NORMAL":1,
						"TEXCOORD_0":2
					},
					"indices":3
				}
			]
		}
	],
	"accessors":[
		{
			"bufferView":0,
			"componentType":5126,
			"count":1970,
			"max":[
				1.3671875,
				0.984375,
				0.8515625
			],
			"min":[
				-1.3671875,
				-0.984375,
				-0.8515625
			],
			"type":"VEC3"
		},
		{
			"bufferView":1,
			"componentType":5126,
			"count":1970,
			"type":"VEC3"
		},
		{
			"bufferView":2,
			"componentType":5126,
			"count":1970,
			"type":"VEC2"
		},
		{
			"bufferView":3,
			"componentType":5123,
			"count":2904,
			"type":"SCALAR"
		}
	],
	"bufferViews":[
		{
			"buffer":0,
			"byteLength":23640,
			"byteOffset":0,
			"target":34962
		},
		{
			"buffer":0,
			"byteLength":23640,
			"byteOffset":23640,
			"target":34962
		},
		{
			"buffer":0,
			"byteLength":15760,
			"byteOffset":47280,
			"target":34962
		},
		{
			"buffer":0,
			"byteLength":5808,
			"byteOffset":63040,
			"target":34963
		}
	],
	"buffers":[
		{
			"byteLength":68848,
			"uri":"susanne.bin"
		}
	]
}
