{
  "accessors": [
    {
      "bufferView": 2,
      "componentType": 5126,
      "count": 4,
      "max": [
        -16.54706573486328,
        -168.38595581054688,
        -1.7142419815063477
      ],
      "min": [
        -30.452491760253906,
        -182.29136657714844,
        -1.7142419815063477
      ],
      "type": "VEC3"
    },
    {
      "bufferView": 2,
      "byteOffset": 48,
      "componentType": 5126,
      "count": 4,
      "max": [
        0.0,
        -0.0,
        -1.0
      ],
      "min": [
        0.0,
        -0.0,
        -1.0
      ],
      "type": "VEC3"
    },
    {
      "bufferView": 1,
      "componentType": 5126,
      "count": 4,
      "max": [
        0.0,
        0.0
      ],
      "min": [
        0.0,
        0.0
      ],
      "type": "VEC2"
    },
    {
      "bufferView": 0,
      "componentType": 5125,
      "count": 6,
      "type": "SCALAR"
    },
    {
      "bufferView": 2,
      "byteOffset": 96,
      "componentType": 5126,
      "count": 90,
      "max": [
        76.56364440917969,
        65.04586791992188,
        99.79595947265625
      ],
      "min": [
        -22.563190460205078,
        -52.157039642333984,
        44.83561325073242
      ],
      "type": "VEC3"
    },
    {
      "bufferView": 2,
      "byteOffset": 1176,
      "componentType": 5126,
      "count": 90,
      "max": [
        0.3120899796485901,
        0.16089092195034027,
        1.0
      ],
      "min": [
        -0.9933796525001526,
        -0.9884978532791138,
        -1.0
      ],
      "type": "VEC3"
    },
    {
      "bufferView": 1,
      "byteOffset": 32,
      "componentType": 5126,
      "count": 90,
      "max": [
        0.7529069781303406,
        1.0
      ],
      "min": [
        0.08668500185012817,
        0.0
      ],
      "type": "VEC2"
    },
    {
      "bufferView": 0,
      "byteOffset": 24,
      "componentType": 5125,
      "count": 216,
      "type": "SCALAR"
    },
    {
      "bufferView": 2,
      "byteOffset": 2256,
      "componentType": 5126,
      "count": 179,
      "max": [
        55.44354248046875,
        134.68577575683594,
        137.96153259277344
      ],
      "min": [
        -89.16309356689453,
        -55.88149642944336,
        6.84630012512207
      ],
      "type": "VEC3"
    },
    {
      "bufferView": 2,
      "byteOffset": 4404,
      "componentType": 5126,
      "count": 179,
      "max": [
        0.6964420676231384,
        1.0,
        0.7602177262306213
      ],
      "min": [
        -1.0,
        -0.7155769467353821,
        -1.0
      ],
      "type": "VEC3"
    },
    {
      "bufferView": 1,
      "byteOffset": 752,
      "componentType": 5126,
      "count": 179,
      "max": [
        0.0,
        0.0
      ],
      "min": [
        0.0,
        0.0
      ],
      "type": "VEC2"
    },
    {
      "bufferView": 0,
      "byteOffset": 888,
      "componentType": 5125,
      "count": 492,
      "type": "SCALAR"
    },
    {
      "bufferView": 2,
      "byteOffset": 6552,
      "componentType": 5126,
      "count": 10000,
      "max": [
        225.02120971679688,
        200.0,
        189.93710327148438
      ],
      "min": [
        -174.97879028320313,
        -200.0,
        -5.70045280456543
      ],
      "type": "VEC3"
    },
    {
      "bufferView": 2,
      "byteOffset": 126552,
      "componentType": 5126,
      "count": 10000,
      "max": [
        1.0,
        1.0,
        1.0
      ],
      "min": [
        -1.0,
        -1.0,
        -1.0
      ],
      "type": "VEC3"
    },
    {
      "bufferView": 3,
      "componentType": 5126,
      "count": 10000,
      "max": [
        1.0,
        1.0,
        1.0,
        1.0
      ],
      "min": [
        -1.0,
        -1.0,
        -1.0,
        -1.0
      ],
      "type": "VEC4"
    },
    {
      "bufferView": 1,
      "byteOffset": 2184,
      "componentType": 5126,
      "count": 10000,
      "max": [
        0.9979119896888733,
        0.9994469881057739
      ],
      "min": [
        0.005423999857157469,
        0.0
      ],
      "type": "VEC2"
    },
    {
      "bufferView": 0,
      "byteOffset": 2856,
      "componentType": 5125,
      "count": 18183,
      "type": "SCALAR"
    },
    {
      "bufferView": 2,
      "byteOffset": 246552,
      "componentType": 5126,
      "count": 9496,
      "max": [
        221.58993530273438,
        160.1086883544922,
        137.96153259277344
      ],
      "min": [
        -143.76669311523438,
        -194.37594604492188,
        -5.7561421394348145
      ],
      "type": "VEC3"
    },
    {
      "bufferView": 2,
      "byteOffset": 360504,
      "componentType": 5126,
      "count": 9496,
      "max": [
        1.0,
        1.0,
        1.0
      ],
      "min": [
        -1.0,
        -1.0,
        -1.0
      ],
      "type": "VEC3"
    },
    {
      "bufferView": 3,
      "byteOffset": 160000,
      "componentType": 5126,
      "count": 9496,
      "max": [
        1.0,
        1.0,
        1.0,
        1.0
      ],
      "min": [
        -1.0,
        -1.0,
        -1.0,
        -1.0
      ],
      "type": "VEC4"
    },
    {
      "bufferView": 1,
      "byteOffset": 82184,
      "componentType": 5126,
      "count": 9496,
      "max": [
        1.0008280277252197,
        1.0
      ],
      "min": [
        0.0037589999847114086,
        0.001281999982893467
      ],
      "type": "VEC2"
    },
    {
      "bufferView": 0,
      "byteOffset": 75588,
      "componentType": 5125,
      "count": 19068,
      "type": "SCALAR"
    },
    {
      "bufferView": 2,
      "byteOffset": 474456,
      "componentType": 5126,
      "count": 1650,
      "max": [
        41.75967025756836,
        133.13531494140625,
        174.6707000732422
      ],
      "min": [
        -132.99331665039063,
        -138.71229553222656,
        5.396444797515869
      ],
      "type": "VEC3"
    },
    {
      "bufferView": 2,
      "byteOffset": 494256,
      "componentType": 5126,
      "count": 1650,
      "max": [
        1.0,
        1.0,
        1.0
      ],
      "min": [
        -1.0,
        -1.0,
        -1.0
      ],
      "type": "VEC3"
    },
    {
      "bufferView": 1,
      "byteOffset": 158152,
      "componentType": 5126,
      "count": 1650,
      "max": [
        0.7419270277023315,
        0.6989750266075134
      ],
      "min": [
        0.13033199310302734,
        0.0009599999757483602
      ],
      "type": "VEC2"
    },
    {
      "bufferView": 0,
      "byteOffset": 151860,
      "componentType": 5125,
      "count": 6486,
      "type": "SCALAR"
    },
    {
      "bufferView": 2,
      "byteOffset": 514056,
      "componentType": 5126,
      "count": 2049,
      "max": [
        40.84426498413086,
        130.49842834472656,
        176.61256408691406
      ],
      "min": [
        -130.5434112548828,
        -135.67367553710938,
        5.807107925415039
      ],
      "type": "VEC3"
    },
    {
      "bufferView": 2,
      "byteOffset": 538644,
      "componentType": 5126,
      "count": 2049,
      "max": [
        1.0,
        1.0,
        1.0
      ],
      "min": [
        -1.0,
        -1.0,
        -1.0
      ],
      "type": "VEC3"
    },
    {
      "bufferView": 1,
      "byteOffset": 171352,
      "componentType": 5126,
      "count": 2049,
      "max": [
        0.24065199494361877,
        0.24803200364112854
      ],
      "min": [
        0.01102100033313036,
        0.001976999919861555
      ],
      "type": "VEC2"
    },
    {
      "bufferView": 0,
      "byteOffset": 177804,
      "componentType": 5125,
      "count": 9072,
      "type": "SCALAR"
    },
    {
      "bufferView": 2,
      "byteOffset": 563232,
      "componentType": 5126,
      "count": 2323,
      "max": [
        202.491943359375,
        137.50140380859375,
        76.26296997070313
      ],
      "min": [
        -116.23223876953125,
        -200.0,
        -5.985044956207275
      ],
      "type": "VEC3"
    },
    {
      "bufferView": 2,
      "byteOffset": 591108,
      "componentType": 5126,
      "count": 2323,
      "max": [
        1.0,
        1.0,
        1.0
      ],
      "min": [
        -1.0,
        -1.0,
        -1.0
      ],
      "type": "VEC3"
    },
    {
      "bufferView": 3,
      "byteOffset": 311936,
      "componentType": 5126,
      "count": 2323,
      "max": [
        1.0,
        1.0,
        0.9976416826248169,
        1.0
      ],
      "min": [
        -1.0,
        -1.0,
        -0.9925082921981812,
        -1.0
      ],
      "type": "VEC4"
    },
    {
      "bufferView": 1,
      "byteOffset": 187744,
      "componentType": 5126,
      "count": 2323,
      "max": [
        0.9792100191116333,
        0.9980689883232117
      ],
      "min": [
        -0.0005249999812804163,
        0.0019920000340789557
      ],
      "type": "VEC2"
    },
    {
      "bufferView": 0,
      "byteOffset": 214092,
      "componentType": 5125,
      "count": 3567,
      "type": "SCALAR"
    },
    {
      "bufferView": 2,
      "byteOffset": 618984,
      "componentType": 5126,
      "count": 119,
      "max": [
        -80.47657775878906,
        -84.45781707763672,
        31.515380859375
      ],
      "min": [
        -84.69010162353516,
        -88.67134094238281,
        27.358203887939453
      ],
      "type": "VEC3"
    },
    {
      "bufferView": 2,
      "byteOffset": 620412,
      "componentType": 5126,
      "count": 119,
      "max": [
        1.0,
        1.0,
        1.0
      ],
      "min": [
        -1.0,
        -1.0,
        -1.0
      ],
      "type": "VEC3"
    },
    {
      "bufferView": 1,
      "byteOffset": 206328,
      "componentType": 5126,
      "count": 119,
      "max": [
        0.24065199494361877,
        0.12138999998569489
      ],
      "min": [
        0.13054800033569336,
        0.001976999919861555
      ],
      "type": "VEC2"
    },
    {
      "bufferView": 0,
      "byteOffset": 228360,
      "componentType": 5125,
      "count": 480,
      "type": "SCALAR"
    }
  ],
  "asset": {
    "extras": {
      "author": "valhel (https://sketchfab.com/valhel)",
      "license": "CC-BY-4.0 (http://creativecommons.org/licenses/by/4.0/)",
      "source": "https://sketchfab.com/3d-models/stylized-fantasy-tavern-41e6acfac90046fc8e3da298dae0b774",
      "title": "Stylized Fantasy Tavern"
    },
    "generator": "Sketchfab-15.33.0",
    "version": "2.0"
  },
  "bufferViews": [
    {
      "buffer": 0,
      "byteLength": 230280,
      "name": "floatBufferViews",
      "target": 34963
    },
    {
      "buffer": 0,
      "byteLength": 207280,
      "byteOffset": 230280,
      "byteStride": 8,
      "name": "floatBufferViews",
      "target": 34962
    },
    {
      "buffer": 0,
      "byteLength": 621840,
      "byteOffset": 437560,
      "byteStride": 12,
      "name": "floatBufferViews",
      "target": 34962
    },
    {
      "buffer": 0,
      "byteLength": 349104,
      "byteOffset": 1059400,
      "byteStride": 16,
      "name": "floatBufferViews",
      "target": 34962
    }
  ],
  "buffers": [
    {
      "byteLength": 1408504,
      "uri": "scene.bin"
    }
  ],
  "extensionsRequired": [
    "KHR_materials_pbrSpecularGlossiness"
  ],
  "extensionsUsed": [
    "KHR_materials_pbrSpecularGlossiness"
  ],
  "images": [
    {
      "uri": "textures/lambert2SG_diffuse.png"
    },
    {
      "uri": "textures/lambert2SG_normal.png"
    },
    {
      "uri": "textures/lambert2SG_occlusion.png"
    },
    {
      "uri": "textures/lambert3SG_diffuse.png"
    },
    {
      "uri": "textures/lambert5SG_diffuse.png"
    },
    {
      "uri": "textures/lambert5SG_normal.png"
    },
    {
      "uri": "textures/lambert5SG_occlusion.png"
    }
  ],
  "materials": [
    {
      "doubleSided": true,
      "extensions": {
        "KHR_materials_pbrSpecularGlossiness": {
          "diffuseFactor": [
            1.0,
            1.0,
            1.0,
            1.0
          ],
          "glossinessFactor": 0.4,
          "specularFactor": [
            0.0,
            0.0,
            0.0
          ]
        }
      },
      "name": "initialShadingGroup"
    },
    {
      "alphaCutoff": 0.7163114782813514,
      "alphaMode": "MASK",
      "doubleSided": true,
      "extensions": {
        "KHR_materials_pbrSpecularGlossiness": {
          "diffuseFactor": [
            1.0,
            1.0,
            1.0,
            1.0
          ],
          "diffuseTexture": {
            "index": 0
          },
          "glossinessFactor": 0.3930026967306427,
          "specularFactor": [
            0.0,
            0.0,
            0.0
          ]
        }
      },
      "name": "lambert2SG",
      "normalTexture": {
        "index": 1
      },
      "occlusionTexture": {
        "index": 2
      }
    },
    {
      "alphaMode": "BLEND",
      "doubleSided": true,
      "extensions": {
        "KHR_materials_pbrSpecularGlossiness": {
          "diffuseFactor": [
            1.0,
            1.0,
            1.0,
            0.5
          ],
          "diffuseTexture": {
            "index": 3
          },
          "glossinessFactor": 0.4,
          "specularFactor": [
            0.0,
            0.0,
            0.0
          ]
        }
      },
      "name": "lambert3SG"
    },
    {
      "alphaMode": "BLEND",
      "doubleSided": true,
      "extensions": {
        "KHR_materials_pbrSpecularGlossiness": {
          "diffuseFactor": [
            1.0,
            1.0,
            1.0,
            0.8
          ],
          "diffuseTexture": {
            "index": 3
          },
          "glossinessFactor": 0.4,
          "specularFactor": [
            0.0,
            0.0,
            0.0
          ]
        }
      },
      "name": "lambert4SG"
    },
    {
      "alphaCutoff": 0.5766322546549145,
      "alphaMode": "MASK",
      "doubleSided": true,
      "extensions": {
        "KHR_materials_pbrSpecularGlossiness": {
          "diffuseFactor": [
            1.0,
            1.0,
            1.0,
            1.0
          ],
          "diffuseTexture": {
            "index": 4
          },
          "glossinessFactor": 0.4,
          "specularFactor": [
            0.0,
            0.0,
            0.0
          ]
        }
      },
      "name": "lambert5SG",
      "normalTexture": {
        "index": 5
      },
      "occlusionTexture": {
        "index": 6
      }
    },
    {
      "alphaMode": "BLEND",
      "doubleSided": true,
      "extensions": {
        "KHR_materials_pbrSpecularGlossiness": {
          "diffuseFactor": [
            1.0,
            1.0,
            1.0,
            0.8
          ],
          "diffuseTexture": {
            "index": 3
          },
          "glossinessFactor": 0.4,
          "specularFactor": [
            0.0,
            0.0,
            0.0
          ]
        }
      },
      "name": "pasted__pasted__pasted__pasted__lambert4SG3"
    }
  ],
  "meshes": [
    {
      "name": "Object_0",
      "primitives": [
        {
          "attributes": {
            "NORMAL": 1,
            "POSITION": 0,
            "TEXCOORD_0": 2
          },
          "indices": 3,
          "material": 4,
          "mode": 4
        }
      ]
    },
    {
      "name": "Object_1",
      "primitives": [
        {
          "attributes": {
            "NORMAL": 5,
            "POSITION": 4,
            "TEXCOORD_0": 6
          },
          "indices": 7,
          "material": 0,
          "mode": 4
        }
      ]
    },
    {
      "name": "Object_2",
      "primitives": [
        {
          "attributes": {
            "NORMAL": 9,
            "POSITION": 8,
            "TEXCOORD_0": 10
          },
          "indices": 11,
          "material": 1,
          "mode": 4
        }
      ]
    },
    {
      "name": "Object_3",
      "primitives": [
        {
          "attributes": {
            "NORMAL": 13,
            "POSITION": 12,
            "TANGENT": 14,
            "TEXCOORD_0": 15
          },
          "indices": 16,
          "material": 1,
          "mode": 4
        }
      ]
    },
    {
      "name": "Object_4",
      "primitives": [
        {
          "attributes": {
            "NORMAL": 18,
            "POSITION": 17,
            "TANGENT": 19,
            "TEXCOORD_0": 20
          },
          "indices": 21,
          "material": 1,
          "mode": 4
        }
      ]
    },
    {
      "name": "Object_5",
      "primitives": [
        {
          "attributes": {
            "NORMAL": 23,
            "POSITION": 22,
            "TEXCOORD_0": 24
          },
          "indices": 25,
          "material": 2,
          "mode": 4
        }
      ]
    },
    {
      "name": "Object_6",
      "primitives": [
        {
          "attributes": {
            "NORMAL": 27,
            "POSITION": 26,
            "TEXCOORD_0": 28
          },
          "indices": 29,
          "material": 3,
          "mode": 4
        }
      ]
    },
    {
      "name": "Object_7",
      "primitives": [
        {
          "attributes": {
            "NORMAL": 31,
            "POSITION": 30,
            "TANGENT": 32,
            "TEXCOORD_0": 33
          },
          "indices": 34,
          "material": 4,
          "mode": 4
        }
      ]
    },
    {
      "name": "Object_8",
      "primitives": [
        {
          "attributes": {
            "NORMAL": 36,
            "POSITION": 35,
            "TEXCOORD_0": 37
          },
          "indices": 38,
          "material": 5,
          "mode": 4
        }
      ]
    }
  ],
  "nodes": [
    {
      "children": [
        1
      ],
      "matrix": [
        1.0,
        0.0,
        0.0,
        0.0,
        0.0,
        2.220446049250313e-16,
        -1.0,
        0.0,
        0.0,
        1.0,
        2.220446049250313e-16,
        0.0,
        0.0,
        0.0,
        0.0,
        1.0
      ],
      "name": "Sketchfab_model"
    },
    {
      "children": [
        2,
        3,
        4,
        5,
        6,
        7,
        8,
        9,
        10
      ],
      "name": "FinalTavern.obj.cleaner.materialmerger.gles"
    },
    {
      "mesh": 0,
      "name": "Object_2"
    },
    {
      "mesh": 1,
      "name": "Object_3"
    },
    {
      "mesh": 2,
      "name": "Object_4"
    },
    {
      "mesh": 3,
      "name": "Object_5"
    },
    {
      "mesh": 4,
      "name": "Object_6"
    },
    {
      "mesh": 5,
      "name": "Object_7"
    },
    {
      "mesh": 6,
      "name": "Object_8"
    },
    {
      "mesh": 7,
      "name": "Object_9"
    },
    {
      "mesh": 8,
      "name": "Object_10"
    }
  ],
  "samplers": [
    {
      "magFilter": 9729,
      "minFilter": 9987,
      "wrapS": 10497,
      "wrapT": 10497
    }
  ],
  "scene": 0,
  "scenes": [
    {
      "name": "Sketchfab_Scene",
      "nodes": [
        0
      ]
    }
  ],
  "textures": [
    {
      "sampler": 0,
      "source": 0
    },
    {
      "sampler": 0,
      "source": 1
    },
    {
      "sampler": 0,
      "source": 2
    },
    {
      "sampler": 0,
      "source": 3
    },
    {
      "sampler": 0,
      "source": 4
    },
    {
      "sampler": 0,
      "source": 5
    },
    {
      "sampler": 0,
      "source": 6
    }
  ]
}
